<svg id="Layer_1" data-name="Layer 1" xmlns="http://www.w3.org/2000/svg" xmlns:xlink="http://www.w3.org/1999/xlink" viewBox="0 0 1139.85 512.97"><defs><style>.cls-1,.cls-10,.cls-15,.cls-29,.cls-55,.cls-6,.cls-74{fill:none;}.cls-2{clip-path:url(#clip-path);}.cls-3{fill:#fff;}.cls-4{font-size:18px;}.cls-4,.cls-59{font-family:Avenir-Light, Avenir;}.cls-5{letter-spacing:-0.02em;}.cls-10,.cls-15,.cls-29,.cls-55,.cls-6{stroke:#000;}.cls-6{stroke-width:4px;}.cls-7{opacity:0.45;}.cls-16,.cls-64,.cls-7{isolation:isolate;}.cls-8{clip-path:url(#clip-path-3);}.cls-9{clip-path:url(#clip-path-4);}.cls-10,.cls-29,.cls-74{stroke-width:2px;}.cls-10{stroke-dasharray:4 4;}.cls-11{clip-path:url(#clip-path-6);}.cls-12{clip-path:url(#clip-path-7);}.cls-13{clip-path:url(#clip-path-9);}.cls-14{clip-path:url(#clip-path-10);}.cls-15{stroke-width:3px;}.cls-16{opacity:0.45;}.cls-17{clip-path:url(#clip-path-12);}.cls-18{clip-path:url(#clip-path-13);}.cls-19{clip-path:url(#clip-path-15);}.cls-20{clip-path:url(#clip-path-16);}.cls-21{clip-path:url(#clip-path-17);}.cls-22{clip-path:url(#clip-path-19);}.cls-23{clip-path:url(#clip-path-21);}.cls-24{clip-path:url(#clip-path-24);}.cls-25{clip-path:url(#clip-path-25);}.cls-26{clip-path:url(#clip-path-27);}.cls-27{clip-path:url(#clip-path-28);}.cls-28{clip-path:url(#clip-path-29);}.cls-30{clip-path:url(#clip-path-30);}.cls-31{clip-path:url(#clip-path-31);}.cls-32{clip-path:url(#clip-path-32);}.cls-33{clip-path:url(#clip-path-33);}.cls-34{clip-path:url(#clip-path-34);}.cls-35{clip-path:url(#clip-path-35);}.cls-36{clip-path:url(#clip-path-36);}.cls-37{clip-path:url(#clip-path-38);}.cls-38{clip-path:url(#clip-path-39);}.cls-39{clip-path:url(#clip-path-40);}.cls-40{clip-path:url(#clip-path-41);}.cls-41{clip-path:url(#clip-path-42);}.cls-42{clip-path:url(#clip-path-43);}.cls-43{clip-path:url(#clip-path-44);}.cls-44{clip-path:url(#clip-path-45);}.cls-45{clip-path:url(#clip-path-46);}.cls-46{clip-path:url(#clip-path-47);}.cls-47{clip-path:url(#clip-path-48);}.cls-48{clip-path:url(#clip-path-49);}.cls-49{clip-path:url(#clip-path-50);}.cls-50{clip-path:url(#clip-path-51);}.cls-51{clip-path:url(#clip-path-52);}.cls-52{clip-path:url(#clip-path-53);}.cls-53{font-size:24px;font-family:Avenir-Heavy, Avenir;}.cls-54{letter-spacing:0.01em;}.cls-55{stroke-miterlimit:10;stroke-width:1.2px;}.cls-56{letter-spacing:-0.02em;}.cls-57{letter-spacing:0.01em;}.cls-58{letter-spacing:0em;}.cls-59{font-size:14px;}.cls-60{clip-path:url(#clip-path-56);}.cls-61{clip-path:url(#clip-path-57);}.cls-62{clip-path:url(#clip-path-59);}.cls-63{clip-path:url(#clip-path-60);}.cls-64{opacity:0.45;}.cls-65{clip-path:url(#clip-path-62);}.cls-66{clip-path:url(#clip-path-63);}.cls-67{clip-path:url(#clip-path-65);}.cls-68{clip-path:url(#clip-path-66);}.cls-69{clip-path:url(#clip-path-68);}.cls-70{clip-path:url(#clip-path-69);}.cls-71{clip-path:url(#clip-path-71);}.cls-72{clip-path:url(#clip-path-74);}.cls-73{clip-path:url(#clip-path-75);}.cls-74{stroke:#fff;}.cls-75{clip-path:url(#clip-path-76);}.cls-76{clip-path:url(#clip-path-78);}.cls-77{clip-path:url(#clip-path-81);}.cls-78{clip-path:url(#clip-path-83);}.cls-79{clip-path:url(#clip-path-86);}.cls-80{clip-path:url(#clip-path-87);}.cls-81{clip-path:url(#clip-path-88);}.cls-82{clip-path:url(#clip-path-89);}.cls-83{clip-path:url(#clip-path-90);}.cls-84{clip-path:url(#clip-path-91);}.cls-85{clip-path:url(#clip-path-92);}.cls-86{clip-path:url(#clip-path-93);}.cls-87{clip-path:url(#clip-path-95);}.cls-88{clip-path:url(#clip-path-97);}.cls-89{clip-path:url(#clip-path-99);}.cls-90{clip-path:url(#clip-path-101);}.cls-91{clip-path:url(#clip-path-103);}.cls-92{clip-path:url(#clip-path-105);}.cls-93{clip-path:url(#clip-path-107);}.cls-94{clip-path:url(#clip-path-109);}.cls-95{clip-path:url(#clip-path-112);}.cls-96{clip-path:url(#clip-path-114);}.cls-97{clip-path:url(#clip-path-116);}.cls-98{clip-path:url(#clip-path-118);}.cls-99{clip-path:url(#clip-path-121);}.cls-100{clip-path:url(#clip-path-123);}.cls-101{clip-path:url(#clip-path-125);}.cls-102{clip-path:url(#clip-path-127);}.cls-103{clip-path:url(#clip-path-130);}.cls-104{letter-spacing:0em;}.cls-105{clip-path:url(#clip-path-132);}.cls-106{clip-path:url(#clip-path-133);}.cls-107{clip-path:url(#clip-path-135);}.cls-108{clip-path:url(#clip-path-136);}.cls-109{clip-path:url(#clip-path-138);}.cls-110{clip-path:url(#clip-path-139);}.cls-111{clip-path:url(#clip-path-141);}.cls-112{clip-path:url(#clip-path-142);}.cls-113{clip-path:url(#clip-path-144);}.cls-114{clip-path:url(#clip-path-145);}.cls-115{clip-path:url(#clip-path-146);}.cls-116{clip-path:url(#clip-path-148);}.cls-117{clip-path:url(#clip-path-150);}.cls-118{clip-path:url(#clip-path-153);}.cls-119{clip-path:url(#clip-path-154);}.cls-120{clip-path:url(#clip-path-156);}.cls-121{clip-path:url(#clip-path-157);}.cls-122{clip-path:url(#clip-path-158);}.cls-123{clip-path:url(#clip-path-159);}.cls-124{clip-path:url(#clip-path-160);}.cls-125{clip-path:url(#clip-path-161);}.cls-126{clip-path:url(#clip-path-162);}.cls-127{clip-path:url(#clip-path-163);}.cls-128{clip-path:url(#clip-path-164);}.cls-129{clip-path:url(#clip-path-165);}.cls-130{clip-path:url(#clip-path-167);}.cls-131{clip-path:url(#clip-path-168);}.cls-132{clip-path:url(#clip-path-169);}.cls-133{clip-path:url(#clip-path-170);}.cls-134{clip-path:url(#clip-path-171);}.cls-135{clip-path:url(#clip-path-172);}.cls-136{clip-path:url(#clip-path-173);}.cls-137{clip-path:url(#clip-path-174);}.cls-138{clip-path:url(#clip-path-175);}.cls-139{clip-path:url(#clip-path-176);}.cls-140{clip-path:url(#clip-path-177);}.cls-141{clip-path:url(#clip-path-178);}.cls-142{clip-path:url(#clip-path-179);}.cls-143{clip-path:url(#clip-path-180);}.cls-144{clip-path:url(#clip-path-181);}.cls-145{clip-path:url(#clip-path-182);}.cls-146{clip-path:url(#clip-path-185);}.cls-147{clip-path:url(#clip-path-186);}.cls-148{clip-path:url(#clip-path-188);}.cls-149{clip-path:url(#clip-path-189);}.cls-150{clip-path:url(#clip-path-191);}.cls-151{clip-path:url(#clip-path-192);}.cls-152{clip-path:url(#clip-path-194);}.cls-153{clip-path:url(#clip-path-195);}.cls-154{clip-path:url(#clip-path-197);}.cls-155{clip-path:url(#clip-path-198);}.cls-156{clip-path:url(#clip-path-200);}.cls-157{clip-path:url(#clip-path-203);}.cls-158{clip-path:url(#clip-path-204);}.cls-159{clip-path:url(#clip-path-205);}.cls-160{clip-path:url(#clip-path-207);}.cls-161{clip-path:url(#clip-path-210);}.cls-162{clip-path:url(#clip-path-212);}.cls-163{clip-path:url(#clip-path-215);}.cls-164{clip-path:url(#clip-path-216);}.cls-165{clip-path:url(#clip-path-217);}.cls-166{clip-path:url(#clip-path-218);}.cls-167{clip-path:url(#clip-path-219);}.cls-168{clip-path:url(#clip-path-220);}.cls-169{clip-path:url(#clip-path-221);}.cls-170{clip-path:url(#clip-path-222);}.cls-171{clip-path:url(#clip-path-224);}.cls-172{clip-path:url(#clip-path-226);}.cls-173{clip-path:url(#clip-path-228);}.cls-174{clip-path:url(#clip-path-230);}.cls-175{clip-path:url(#clip-path-232);}.cls-176{clip-path:url(#clip-path-234);}.cls-177{clip-path:url(#clip-path-236);}.cls-178{clip-path:url(#clip-path-238);}.cls-179{clip-path:url(#clip-path-241);}.cls-180{clip-path:url(#clip-path-243);}.cls-181{clip-path:url(#clip-path-245);}.cls-182{clip-path:url(#clip-path-247);}.cls-183{clip-path:url(#clip-path-250);}.cls-184{clip-path:url(#clip-path-252);}.cls-185{clip-path:url(#clip-path-254);}.cls-186{clip-path:url(#clip-path-256);}</style><clipPath id="clip-path"><rect class="cls-1" x="-5.14" y="-16.75" width="1024" height="768"/></clipPath><clipPath id="clip-path-3"><rect class="cls-1" x="125.86" y="156.25" width="88" height="9"/></clipPath><clipPath id="clip-path-4"><rect class="cls-1" x="128.86" y="158.25" width="217" height="180"/></clipPath><clipPath id="clip-path-6"><rect class="cls-1" x="125.86" y="137.25" width="88" height="9"/></clipPath><clipPath id="clip-path-7"><rect class="cls-1" x="128.86" y="139.25" width="217" height="162"/></clipPath><clipPath id="clip-path-9"><rect class="cls-1" x="125.86" y="120.25" width="88" height="9"/></clipPath><clipPath id="clip-path-10"><rect class="cls-1" x="128.86" y="122.25" width="217" height="144"/></clipPath><clipPath id="clip-path-12"><rect class="cls-1" x="180.86" y="242.25" width="9" height="88"/></clipPath><clipPath id="clip-path-13"><rect class="cls-1" x="182.86" y="245.25" width="194" height="345"/></clipPath><clipPath id="clip-path-15"><rect class="cls-1" x="145.86" y="242.25" width="9" height="88"/></clipPath><clipPath id="clip-path-16"><rect class="cls-1" x="147.86" y="245.25" width="159" height="345"/></clipPath><clipPath id="clip-path-17"><rect class="cls-1" x="130.23" y="261.39" width="76.15" height="15.2"/></clipPath><clipPath id="clip-path-19"><rect class="cls-1" x="130.23" y="278.65" width="76.15" height="15.2"/></clipPath><clipPath id="clip-path-21"><rect class="cls-1" x="130.23" y="295.92" width="76.15" height="15.2"/></clipPath><clipPath id="clip-path-24"><rect class="cls-1" x="174.86" y="391.25" width="9" height="87"/></clipPath><clipPath id="clip-path-25"><rect class="cls-1" x="176.86" y="394.25" width="188" height="357"/></clipPath><clipPath id="clip-path-27"><rect class="cls-1" x="151.86" y="391.25" width="9" height="87"/></clipPath><clipPath id="clip-path-28"><rect class="cls-1" x="153.86" y="394.25" width="165" height="357"/></clipPath><clipPath id="clip-path-29"><rect class="cls-1" x="172.35" y="420.24" width="35" height="11.6"/></clipPath><clipPath id="clip-path-30"><rect class="cls-1" x="172.35" y="437.51" width="35" height="11.6"/></clipPath><clipPath id="clip-path-31"><rect class="cls-1" x="172.35" y="454.78" width="35" height="11.6"/></clipPath><clipPath id="clip-path-32"><rect class="cls-1" x="172.35" y="402.84" width="35" height="11.6"/></clipPath><clipPath id="clip-path-33"><rect class="cls-1" x="129.26" y="420.24" width="35" height="11.6"/></clipPath><clipPath id="clip-path-34"><rect class="cls-1" x="129.26" y="437.51" width="35" height="11.6"/></clipPath><clipPath id="clip-path-35"><rect class="cls-1" x="129.26" y="454.78" width="35" height="11.6"/></clipPath><clipPath id="clip-path-36"><rect class="cls-1" x="129.26" y="402.84" width="35" height="11.6"/></clipPath><clipPath id="clip-path-38"><rect class="cls-1" x="290.84" y="440.81" width="22.66" height="11.6"/></clipPath><clipPath id="clip-path-39"><rect class="cls-1" x="290.84" y="423.54" width="22.66" height="11.6"/></clipPath><clipPath id="clip-path-40"><rect class="cls-1" x="290.84" y="406.28" width="22.66" height="11.6"/></clipPath><clipPath id="clip-path-41"><rect class="cls-1" x="290.84" y="458.21" width="22.66" height="11.6"/></clipPath><clipPath id="clip-path-42"><rect class="cls-1" x="320.27" y="423.68" width="22.66" height="11.6"/></clipPath><clipPath id="clip-path-43"><rect class="cls-1" x="320.27" y="440.95" width="22.66" height="11.6"/></clipPath><clipPath id="clip-path-44"><rect class="cls-1" x="320.27" y="458.21" width="22.66" height="11.6"/></clipPath><clipPath id="clip-path-45"><rect class="cls-1" x="320.27" y="406.28" width="22.66" height="11.6"/></clipPath><clipPath id="clip-path-46"><rect class="cls-1" x="344.94" y="423.68" width="28.42" height="11.6"/></clipPath><clipPath id="clip-path-47"><rect class="cls-1" x="344.94" y="440.95" width="28.42" height="11.6"/></clipPath><clipPath id="clip-path-48"><rect class="cls-1" x="344.94" y="458.21" width="28.42" height="11.6"/></clipPath><clipPath id="clip-path-49"><rect class="cls-1" x="344.94" y="406.28" width="28.42" height="11.6"/></clipPath><clipPath id="clip-path-50"><rect class="cls-1" x="260.36" y="440.81" width="28.42" height="11.6"/></clipPath><clipPath id="clip-path-51"><rect class="cls-1" x="260.36" y="423.54" width="28.42" height="11.6"/></clipPath><clipPath id="clip-path-52"><rect class="cls-1" x="260.36" y="406.28" width="28.42" height="11.6"/></clipPath><clipPath id="clip-path-53"><rect class="cls-1" x="260.36" y="458.21" width="28.42" height="11.6"/></clipPath><clipPath id="clip-path-56"><rect class="cls-1" x="604.86" y="154.25" width="88" height="9"/></clipPath><clipPath id="clip-path-57"><rect class="cls-1" x="607.86" y="156.25" width="411" height="179"/></clipPath><clipPath id="clip-path-59"><rect class="cls-1" x="630.86" y="118.25" width="34" height="9"/></clipPath><clipPath id="clip-path-60"><rect class="cls-1" x="633.86" y="120.25" width="385" height="143"/></clipPath><clipPath id="clip-path-62"><rect class="cls-1" x="619.86" y="409.25" width="57" height="57"/></clipPath><clipPath id="clip-path-63"><rect class="cls-1" x="624.86" y="414.25" width="394" height="337"/></clipPath><clipPath id="clip-path-65"><rect class="cls-1" x="609.86" y="399.25" width="78" height="79"/></clipPath><clipPath id="clip-path-66"><rect class="cls-1" x="614.86" y="404.25" width="404" height="347"/></clipPath><clipPath id="clip-path-68"><rect class="cls-1" x="595.86" y="256.25" width="106" height="60"/></clipPath><clipPath id="clip-path-69"><rect class="cls-1" x="599.86" y="255.25" width="419" height="335"/></clipPath><clipPath id="clip-path-71"><rect class="cls-1" x="599.86" y="252.25" width="98" height="69"/></clipPath><clipPath id="clip-path-74"><rect class="cls-1" x="617.86" y="136.25" width="61" height="9"/></clipPath><clipPath id="clip-path-75"><rect class="cls-1" x="620.86" y="138.25" width="398" height="161"/></clipPath><clipPath id="clip-path-76"><rect class="cls-1" x="755.15" y="268.19" width="51.52" height="21.36" transform="translate(229.81 898.44) rotate(-68)"/></clipPath><clipPath id="clip-path-78"><rect class="cls-1" x="785.82" y="281.14" width="52.27" height="21.36" transform="translate(237.21 935.32) rotate(-68)"/></clipPath><clipPath id="clip-path-81"><rect class="cls-1" x="754.35" y="245.32" width="32.04" height="80.12" transform="translate(-4.86 13.49) rotate(-1)"/></clipPath><clipPath id="clip-path-83"><rect class="cls-1" x="807.96" y="244.38" width="32.04" height="81.34" transform="translate(-4.85 14.42) rotate(-1)"/></clipPath><clipPath id="clip-path-86"><rect class="cls-1" x="438.11" y="440.77" width="22.66" height="11.6"/></clipPath><clipPath id="clip-path-87"><rect class="cls-1" x="438.11" y="423.5" width="22.66" height="11.6"/></clipPath><clipPath id="clip-path-88"><rect class="cls-1" x="438.11" y="406.23" width="22.66" height="11.6"/></clipPath><clipPath id="clip-path-89"><rect class="cls-1" x="438.11" y="458.17" width="22.66" height="11.6"/></clipPath><clipPath id="clip-path-90"><rect class="cls-1" x="467.54" y="423.64" width="22.66" height="11.6"/></clipPath><clipPath id="clip-path-91"><rect class="cls-1" x="467.54" y="440.9" width="22.66" height="11.6"/></clipPath><clipPath id="clip-path-92"><rect class="cls-1" x="467.54" y="458.17" width="22.66" height="11.6"/></clipPath><clipPath id="clip-path-93"><rect class="cls-1" x="467.54" y="406.23" width="22.66" height="11.6"/></clipPath><clipPath id="clip-path-95"><rect class="cls-1" x="495.09" y="271.36" width="26.82" height="15.2"/></clipPath><clipPath id="clip-path-97"><rect class="cls-1" x="466.31" y="271.36" width="26.82" height="15.2"/></clipPath><clipPath id="clip-path-99"><rect class="cls-1" x="430.96" y="271.36" width="26.82" height="15.2"/></clipPath><clipPath id="clip-path-101"><rect class="cls-1" x="402.18" y="271.36" width="26.82" height="15.2"/></clipPath><clipPath id="clip-path-103"><rect class="cls-1" x="402.18" y="291.09" width="26.82" height="15.2"/></clipPath><clipPath id="clip-path-105"><rect class="cls-1" x="430.96" y="291.09" width="26.82" height="15.2"/></clipPath><clipPath id="clip-path-107"><rect class="cls-1" x="466.31" y="291.09" width="26.82" height="15.2"/></clipPath><clipPath id="clip-path-109"><rect class="cls-1" x="495.09" y="291.09" width="26.82" height="15.2"/></clipPath><clipPath id="clip-path-112"><rect class="cls-1" x="898.84" y="169.71" width="41.46" height="15.2" transform="translate(143.97 702.17) rotate(-45)"/></clipPath><clipPath id="clip-path-114"><rect class="cls-1" x="959.3" y="110.02" width="41.46" height="15.2" transform="translate(203.87 727.43) rotate(-45)"/></clipPath><clipPath id="clip-path-116"><rect class="cls-1" x="959.68" y="155.75" width="15.2" height="41.46" transform="translate(158.51 735.66) rotate(-45)"/></clipPath><clipPath id="clip-path-118"><rect class="cls-1" x="899.22" y="96.07" width="15.2" height="41.46" transform="translate(183.02 675.43) rotate(-45)"/></clipPath><clipPath id="clip-path-121"><rect class="cls-1" x="898.84" y="463.24" width="41.46" height="15.2" transform="translate(-63.59 788.16) rotate(-45)"/></clipPath><clipPath id="clip-path-123"><rect class="cls-1" x="959.3" y="403.55" width="41.47" height="15.2" transform="translate(-3.68 813.41) rotate(-45)"/></clipPath><clipPath id="clip-path-125"><rect class="cls-1" x="959.68" y="449.29" width="15.2" height="41.46" transform="translate(-49.05 821.62) rotate(-45)"/></clipPath><clipPath id="clip-path-127"><rect class="cls-1" x="899.22" y="389.6" width="15.2" height="41.47" transform="translate(-24.55 761.4) rotate(-45)"/></clipPath><clipPath id="clip-path-130"><rect class="cls-1" x="1.41" y="-16" width="1024" height="768"/></clipPath><clipPath id="clip-path-132"><rect class="cls-1" x="132.41" y="157" width="88" height="9"/></clipPath><clipPath id="clip-path-133"><rect class="cls-1" x="135.41" y="159" width="217" height="180"/></clipPath><clipPath id="clip-path-135"><rect class="cls-1" x="132.41" y="138" width="88" height="9"/></clipPath><clipPath id="clip-path-136"><rect class="cls-1" x="135.41" y="140" width="217" height="162"/></clipPath><clipPath id="clip-path-138"><rect class="cls-1" x="132.41" y="121" width="88" height="9"/></clipPath><clipPath id="clip-path-139"><rect class="cls-1" x="135.41" y="123" width="217" height="144"/></clipPath><clipPath id="clip-path-141"><rect class="cls-1" x="186.41" y="243" width="9" height="88"/></clipPath><clipPath id="clip-path-142"><rect class="cls-1" x="188.41" y="246" width="193" height="345"/></clipPath><clipPath id="clip-path-144"><rect class="cls-1" x="152.41" y="243" width="9" height="88"/></clipPath><clipPath id="clip-path-145"><rect class="cls-1" x="154.41" y="246" width="159" height="345"/></clipPath><clipPath id="clip-path-146"><rect class="cls-1" x="136.78" y="262.14" width="76.15" height="15.2"/></clipPath><clipPath id="clip-path-148"><rect class="cls-1" x="136.78" y="279.41" width="76.15" height="15.2"/></clipPath><clipPath id="clip-path-150"><rect class="cls-1" x="136.78" y="296.67" width="76.15" height="15.2"/></clipPath><clipPath id="clip-path-153"><rect class="cls-1" x="181.41" y="392" width="9" height="87"/></clipPath><clipPath id="clip-path-154"><rect class="cls-1" x="183.41" y="395" width="188" height="357"/></clipPath><clipPath id="clip-path-156"><rect class="cls-1" x="158.41" y="392" width="9" height="87"/></clipPath><clipPath id="clip-path-157"><rect class="cls-1" x="160.41" y="395" width="165" height="357"/></clipPath><clipPath id="clip-path-158"><rect class="cls-1" x="178.9" y="421" width="35" height="11.6"/></clipPath><clipPath id="clip-path-159"><rect class="cls-1" x="178.9" y="438.26" width="35" height="11.6"/></clipPath><clipPath id="clip-path-160"><rect class="cls-1" x="178.9" y="455.53" width="35" height="11.6"/></clipPath><clipPath id="clip-path-161"><rect class="cls-1" x="178.9" y="403.59" width="35" height="11.6"/></clipPath><clipPath id="clip-path-162"><rect class="cls-1" x="135.81" y="421" width="35" height="11.6"/></clipPath><clipPath id="clip-path-163"><rect class="cls-1" x="135.81" y="438.26" width="35" height="11.6"/></clipPath><clipPath id="clip-path-164"><rect class="cls-1" x="135.81" y="455.53" width="35" height="11.6"/></clipPath><clipPath id="clip-path-165"><rect class="cls-1" x="135.81" y="403.59" width="35" height="11.6"/></clipPath><clipPath id="clip-path-167"><rect class="cls-1" x="297.39" y="441.56" width="22.66" height="11.6"/></clipPath><clipPath id="clip-path-168"><rect class="cls-1" x="297.39" y="424.3" width="22.66" height="11.6"/></clipPath><clipPath id="clip-path-169"><rect class="cls-1" x="297.39" y="407.03" width="22.66" height="11.6"/></clipPath><clipPath id="clip-path-170"><rect class="cls-1" x="297.39" y="458.96" width="22.66" height="11.6"/></clipPath><clipPath id="clip-path-171"><rect class="cls-1" x="326.82" y="424.43" width="22.66" height="11.6"/></clipPath><clipPath id="clip-path-172"><rect class="cls-1" x="326.82" y="441.7" width="22.66" height="11.6"/></clipPath><clipPath id="clip-path-173"><rect class="cls-1" x="326.82" y="458.96" width="22.66" height="11.6"/></clipPath><clipPath id="clip-path-174"><rect class="cls-1" x="326.82" y="407.03" width="22.66" height="11.6"/></clipPath><clipPath id="clip-path-175"><rect class="cls-1" x="351.49" y="424.43" width="28.42" height="11.6"/></clipPath><clipPath id="clip-path-176"><rect class="cls-1" x="351.49" y="441.7" width="28.42" height="11.6"/></clipPath><clipPath id="clip-path-177"><rect class="cls-1" x="351.49" y="458.96" width="28.42" height="11.6"/></clipPath><clipPath id="clip-path-178"><rect class="cls-1" x="351.49" y="407.03" width="28.42" height="11.6"/></clipPath><clipPath id="clip-path-179"><rect class="cls-1" x="266.91" y="441.56" width="28.42" height="11.6"/></clipPath><clipPath id="clip-path-180"><rect class="cls-1" x="266.91" y="424.3" width="28.42" height="11.6"/></clipPath><clipPath id="clip-path-181"><rect class="cls-1" x="266.91" y="407.03" width="28.42" height="11.6"/></clipPath><clipPath id="clip-path-182"><rect class="cls-1" x="266.91" y="458.96" width="28.42" height="11.6"/></clipPath><clipPath id="clip-path-185"><rect class="cls-1" x="611.41" y="155" width="88" height="9"/></clipPath><clipPath id="clip-path-186"><rect class="cls-1" x="614.41" y="157" width="411" height="179"/></clipPath><clipPath id="clip-path-188"><rect class="cls-1" x="637.41" y="119" width="34" height="9"/></clipPath><clipPath id="clip-path-189"><rect class="cls-1" x="640.41" y="121" width="385" height="143"/></clipPath><clipPath id="clip-path-191"><rect class="cls-1" x="626.41" y="410" width="57" height="57"/></clipPath><clipPath id="clip-path-192"><rect class="cls-1" x="631.41" y="415" width="394" height="337"/></clipPath><clipPath id="clip-path-194"><rect class="cls-1" x="616.41" y="400" width="78" height="79"/></clipPath><clipPath id="clip-path-195"><rect class="cls-1" x="621.41" y="405" width="404" height="347"/></clipPath><clipPath id="clip-path-197"><rect class="cls-1" x="602.41" y="257" width="106" height="60"/></clipPath><clipPath id="clip-path-198"><rect class="cls-1" x="606.41" y="256" width="419" height="335"/></clipPath><clipPath id="clip-path-200"><rect class="cls-1" x="606.41" y="253" width="98" height="69"/></clipPath><clipPath id="clip-path-203"><rect class="cls-1" x="624.41" y="137" width="61" height="9"/></clipPath><clipPath id="clip-path-204"><rect class="cls-1" x="627.41" y="139" width="398" height="161"/></clipPath><clipPath id="clip-path-205"><rect class="cls-1" x="761.7" y="268.94" width="51.52" height="21.36" transform="translate(233.21 904.99) rotate(-68)"/></clipPath><clipPath id="clip-path-207"><rect class="cls-1" x="792.36" y="281.89" width="52.27" height="21.36" transform="translate(240.61 941.87) rotate(-68)"/></clipPath><clipPath id="clip-path-210"><rect class="cls-1" x="760.89" y="246.07" width="32.04" height="80.12" transform="translate(-4.88 13.6) rotate(-1)"/></clipPath><clipPath id="clip-path-212"><rect class="cls-1" x="814.5" y="245.14" width="32.04" height="81.34" transform="translate(-4.86 14.53) rotate(-1)"/></clipPath><clipPath id="clip-path-215"><rect class="cls-1" x="444.65" y="441.52" width="22.66" height="11.6"/></clipPath><clipPath id="clip-path-216"><rect class="cls-1" x="444.65" y="424.25" width="22.66" height="11.6"/></clipPath><clipPath id="clip-path-217"><rect class="cls-1" x="444.65" y="406.99" width="22.66" height="11.6"/></clipPath><clipPath id="clip-path-218"><rect class="cls-1" x="444.65" y="458.92" width="22.66" height="11.6"/></clipPath><clipPath id="clip-path-219"><rect class="cls-1" x="474.08" y="424.39" width="22.66" height="11.6"/></clipPath><clipPath id="clip-path-220"><rect class="cls-1" x="474.08" y="441.66" width="22.66" height="11.6"/></clipPath><clipPath id="clip-path-221"><rect class="cls-1" x="474.08" y="458.92" width="22.66" height="11.6"/></clipPath><clipPath id="clip-path-222"><rect class="cls-1" x="474.08" y="406.99" width="22.66" height="11.6"/></clipPath><clipPath id="clip-path-224"><rect class="cls-1" x="501.64" y="272.11" width="26.82" height="15.2"/></clipPath><clipPath id="clip-path-226"><rect class="cls-1" x="472.86" y="272.11" width="26.82" height="15.2"/></clipPath><clipPath id="clip-path-228"><rect class="cls-1" x="437.51" y="272.11" width="26.82" height="15.2"/></clipPath><clipPath id="clip-path-230"><rect class="cls-1" x="408.73" y="272.11" width="26.82" height="15.2"/></clipPath><clipPath id="clip-path-232"><rect class="cls-1" x="408.73" y="291.84" width="26.82" height="15.2"/></clipPath><clipPath id="clip-path-234"><rect class="cls-1" x="437.51" y="291.84" width="26.82" height="15.2"/></clipPath><clipPath id="clip-path-236"><rect class="cls-1" x="472.86" y="291.84" width="26.82" height="15.2"/></clipPath><clipPath id="clip-path-238"><rect class="cls-1" x="501.64" y="291.84" width="26.82" height="15.2"/></clipPath><clipPath id="clip-path-241"><rect class="cls-1" x="905.39" y="170.46" width="41.46" height="15.2" transform="translate(145.36 707.04) rotate(-45)"/></clipPath><clipPath id="clip-path-243"><rect class="cls-1" x="965.85" y="110.77" width="41.46" height="15.2" transform="translate(205.26 732.28) rotate(-45)"/></clipPath><clipPath id="clip-path-245"><rect class="cls-1" x="966.23" y="156.51" width="15.2" height="41.46" transform="translate(159.91 740.52) rotate(-45)"/></clipPath><clipPath id="clip-path-247"><rect class="cls-1" x="905.77" y="96.82" width="15.2" height="41.46" transform="translate(184.4 680.28) rotate(-45)"/></clipPath><clipPath id="clip-path-250"><rect class="cls-1" x="905.39" y="463.99" width="41.46" height="15.2" transform="translate(-62.2 793.02) rotate(-45)"/></clipPath><clipPath id="clip-path-252"><rect class="cls-1" x="965.85" y="404.31" width="41.47" height="15.2" transform="translate(-2.3 818.26) rotate(-45)"/></clipPath><clipPath id="clip-path-254"><rect class="cls-1" x="966.23" y="450.04" width="15.2" height="41.46" transform="translate(-47.65 826.5) rotate(-45)"/></clipPath><clipPath id="clip-path-256"><rect class="cls-1" x="905.77" y="390.35" width="15.2" height="41.47" transform="translate(-23.16 766.25) rotate(-45)"/></clipPath></defs><title>Artboard 1</title><g class="cls-2"><rect class="cls-3" x="-5.14" y="-16.75" width="1024" height="768"/><text class="cls-4" transform="translate(5.68 144.09)">translation</text><text class="cls-4" transform="translate(22.78 290.53)"><tspan class="cls-5">r</tspan><tspan x="5.67" y="0">otation</tspan></text><text class="cls-4" transform="translate(6.68 437.63)">expansion</text><text class="cls-4" transform="translate(134.86 61.25)">constant</text><text class="cls-4" transform="translate(268.86 61.25)">intermittent</text><text class="cls-4" transform="translate(403.55 61.52)">back-and-forth</text><rect class="cls-6" x="101.3" y="73.83" width="134" height="134"/><rect class="cls-6" x="101.3" y="222.65" width="134" height="134"/><rect class="cls-6" x="101.3" y="371.48" width="134" height="134"/></g><g class="cls-2"><g class="cls-7"><g class="cls-8"><g class="cls-9"><line class="cls-10" x1="130.65" y1="160.27" x2="209.25" y2="160.27"/></g></g></g></g><g class="cls-2"><g class="cls-7"><g class="cls-11"><g class="cls-12"><line class="cls-10" x1="130.65" y1="142.18" x2="209.25" y2="142.18"/></g></g></g></g><g class="cls-2"><g class="cls-7"><g class="cls-13"><g class="cls-14"><line class="cls-10" x1="130.65" y1="124.46" x2="209.25" y2="124.46"/></g></g></g><polyline class="cls-15" points="150.83 175.26 150.83 114.31 150.83 112.81"/><polygon points="157.43 114.31 150.83 101.11 144.23 114.31 157.43 114.31"/><polyline class="cls-15" points="168.1 175.26 168.1 114.31 168.1 112.81"/><polygon points="174.7 114.31 168.1 101.11 161.5 114.31 174.7 114.31"/><polyline class="cls-15" points="185.36 175.26 185.36 114.31 185.36 112.81"/><polygon points="191.96 114.31 185.36 101.11 178.76 114.31 191.96 114.31"/></g><g class="cls-2"><g class="cls-16"><g class="cls-17"><g class="cls-18"><line class="cls-10" x1="185.36" y1="325.55" x2="185.36" y2="246.96"/></g></g></g></g><g class="cls-2"><g class="cls-16"><g class="cls-19"><g class="cls-20"><line class="cls-10" x1="150.83" y1="325.55" x2="150.83" y2="246.96"/></g></g></g><line class="cls-15" x1="168.1" y1="335.64" x2="168.1" y2="243.67"/></g><g class="cls-21"><g class="cls-2"><polyline class="cls-15" points="131.23 268.99 192.18 268.99 193.68 268.99"/><polygon points="192.18 275.59 205.38 268.99 192.18 262.39 192.18 275.59"/></g></g><g class="cls-22"><g class="cls-2"><polyline class="cls-15" points="131.23 286.25 192.18 286.25 193.68 286.25"/><polygon points="192.18 292.85 205.38 286.25 192.18 279.65 192.18 292.85"/></g></g><g class="cls-23"><g class="cls-2"><polyline class="cls-15" points="131.23 303.52 192.18 303.52 193.68 303.52"/><polygon points="192.18 310.12 205.38 303.52 192.18 296.92 192.18 310.12"/></g></g><g class="cls-2"><g class="cls-16"><g class="cls-24"><g class="cls-25"><line class="cls-10" x1="179.82" y1="473.91" x2="179.82" y2="395.31"/></g></g></g></g><g class="cls-2"><g class="cls-16"><g class="cls-26"><g class="cls-27"><line class="cls-10" x1="156.79" y1="473.91" x2="156.79" y2="395.31"/></g></g></g><line class="cls-15" x1="168.3" y1="483.99" x2="168.3" y2="392.02"/></g><g class="cls-28"><polyline class="cls-29" points="173.35 426.04 196.75 426.04 197.75 426.04"/><polygon points="196.75 430.84 206.35 426.04 196.75 421.24 196.75 430.84"/></g><g class="cls-30"><polyline class="cls-29" points="173.35 443.31 196.75 443.31 197.75 443.31"/><polygon points="196.75 448.11 206.35 443.31 196.75 438.51 196.75 448.11"/></g><g class="cls-31"><polyline class="cls-29" points="173.35 460.58 196.75 460.58 197.75 460.58"/><polygon points="196.75 465.38 206.35 460.58 196.75 455.78 196.75 465.38"/></g><g class="cls-32"><polyline class="cls-29" points="173.35 408.64 196.75 408.64 197.75 408.64"/><polygon points="196.75 413.44 206.35 408.64 196.75 403.84 196.75 413.44"/></g><g class="cls-33"><polyline class="cls-29" points="163.26 426.04 139.86 426.04 138.86 426.04"/><polygon points="139.86 430.84 130.26 426.04 139.86 421.24 139.86 430.84"/></g><g class="cls-34"><polyline class="cls-29" points="163.26 443.31 139.86 443.31 138.86 443.31"/><polygon points="139.86 448.11 130.26 443.31 139.86 438.51 139.86 448.11"/></g><g class="cls-35"><polyline class="cls-29" points="163.26 460.58 139.86 460.58 138.86 460.58"/><polygon points="139.86 465.38 130.26 460.58 139.86 455.78 139.86 465.38"/></g><g class="cls-36"><polyline class="cls-29" points="163.26 408.64 139.86 408.64 138.86 408.64"/><polygon points="139.86 413.44 130.26 408.64 139.86 403.84 139.86 413.44"/></g><g class="cls-2"><rect class="cls-6" x="249.8" y="73.98" width="134" height="134"/><rect class="cls-6" x="249.8" y="222.8" width="134" height="134"/><rect class="cls-6" x="249.8" y="371.62" width="134" height="134"/><polyline class="cls-15" points="316.8 134.71 316.8 105.82 316.8 104.32"/><polygon points="323.4 105.82 316.8 92.62 310.2 105.82 323.4 105.82"/><polyline class="cls-15" points="334.07 134.71 334.07 105.82 334.07 104.32"/><polygon points="340.67 105.82 334.07 92.62 327.47 105.82 340.67 105.82"/><line class="cls-15" x1="316.6" y1="335.78" x2="316.6" y2="243.81"/><polyline class="cls-15" points="350.85 270.31 362.47 270.31 363.97 270.31"/><polygon points="362.47 276.91 375.67 270.31 362.47 263.71 362.47 276.91"/><polyline class="cls-15" points="350.85 287.58 362.47 287.58 363.97 287.58"/><polygon points="362.47 294.18 375.67 287.58 362.47 280.98 362.47 294.18"/><polyline class="cls-15" points="350.85 304.84 362.47 304.84 363.97 304.84"/><polygon points="362.47 311.44 375.67 304.84 362.47 298.24 362.47 311.44"/><line class="cls-15" x1="316.8" y1="484.14" x2="316.8" y2="392.17"/></g><g class="cls-37"><polyline class="cls-29" points="312.51 446.61 301.44 446.61 300.44 446.61"/><polygon points="301.44 441.81 291.84 446.61 301.44 451.41 301.44 441.81"/></g><g class="cls-38"><polyline class="cls-29" points="312.51 429.34 301.44 429.34 300.44 429.34"/><polygon points="301.44 424.54 291.84 429.34 301.44 434.14 301.44 424.54"/></g><g class="cls-39"><polyline class="cls-29" points="312.51 412.08 301.44 412.08 300.44 412.08"/><polygon points="301.44 407.28 291.84 412.08 301.44 416.88 301.44 407.28"/></g><g class="cls-40"><polyline class="cls-29" points="312.51 464.01 301.44 464.01 300.44 464.01"/><polygon points="301.44 459.21 291.84 464.01 301.44 468.81 301.44 459.21"/></g><g class="cls-41"><polyline class="cls-29" points="321.27 429.48 332.34 429.48 333.34 429.48"/><polygon points="332.34 434.28 341.94 429.48 332.34 424.68 332.34 434.28"/></g><g class="cls-42"><polyline class="cls-29" points="321.27 446.75 332.34 446.75 333.34 446.75"/><polygon points="332.34 451.55 341.94 446.75 332.34 441.95 332.34 451.55"/></g><g class="cls-43"><polyline class="cls-29" points="321.27 464.01 332.34 464.01 333.34 464.01"/><polygon points="332.34 468.81 341.94 464.01 332.34 459.21 332.34 468.81"/></g><g class="cls-44"><polyline class="cls-29" points="321.27 412.08 332.34 412.08 333.34 412.08"/><polygon points="332.34 416.88 341.94 412.08 332.34 407.28 332.34 416.88"/></g><g class="cls-45"><polyline class="cls-29" points="345.94 429.48 362.76 429.48 363.76 429.48"/><polygon points="362.76 434.28 372.36 429.48 362.76 424.68 362.76 434.28"/></g><g class="cls-46"><polyline class="cls-29" points="345.94 446.75 362.76 446.75 363.76 446.75"/><polygon points="362.76 451.55 372.36 446.75 362.76 441.95 362.76 451.55"/></g><g class="cls-47"><polyline class="cls-29" points="345.94 464.01 362.76 464.01 363.76 464.01"/><polygon points="362.76 468.81 372.36 464.01 362.76 459.21 362.76 468.81"/></g><g class="cls-48"><polyline class="cls-29" points="345.94 412.08 362.76 412.08 363.76 412.08"/><polygon points="362.76 416.88 372.36 412.08 362.76 407.28 362.76 416.88"/></g><g class="cls-49"><polyline class="cls-29" points="287.78 446.61 270.96 446.61 269.96 446.61"/><polygon points="270.96 441.81 261.36 446.61 270.96 451.41 270.96 441.81"/></g><g class="cls-50"><polyline class="cls-29" points="287.78 429.34 270.96 429.34 269.96 429.34"/><polygon points="270.96 424.54 261.36 429.34 270.96 434.14 270.96 424.54"/></g><g class="cls-51"><polyline class="cls-29" points="287.78 412.08 270.96 412.08 269.96 412.08"/><polygon points="270.96 407.28 261.36 412.08 270.96 416.88 270.96 407.28"/></g><g class="cls-52"><polyline class="cls-29" points="287.78 464.01 270.96 464.01 269.96 464.01"/><polygon points="270.96 459.21 261.36 464.01 270.96 468.81 270.96 459.21"/></g><g class="cls-2"><polyline class="cls-15" points="316.8 185.68 316.8 156.8 316.8 155.3"/><polygon points="323.4 156.8 316.8 143.6 310.2 156.8 323.4 156.8"/><polyline class="cls-15" points="334.07 185.68 334.07 156.8 334.07 155.3"/><polygon points="340.67 156.8 334.07 143.6 327.47 156.8 340.67 156.8"/><polyline class="cls-15" points="322.07 270.31 333.69 270.31 335.19 270.31"/><polygon points="333.69 276.91 346.89 270.31 333.69 263.71 333.69 276.91"/><polyline class="cls-15" points="322.07 287.58 333.69 287.58 335.19 287.58"/><polygon points="333.69 294.18 346.89 287.58 333.69 280.98 333.69 294.18"/><polyline class="cls-15" points="322.07 304.84 333.69 304.84 335.19 304.84"/><polygon points="333.69 311.44 346.89 304.84 333.69 298.24 333.69 311.44"/><polyline class="cls-15" points="286.72 270.31 298.33 270.31 299.83 270.31"/><polygon points="298.34 276.91 311.54 270.31 298.34 263.71 298.34 276.91"/><polyline class="cls-15" points="286.72 287.58 298.33 287.58 299.83 287.58"/><polygon points="298.34 294.18 311.54 287.58 298.34 280.98 298.34 294.18"/><polyline class="cls-15" points="286.72 304.84 298.33 304.84 299.83 304.84"/><polygon points="298.34 311.44 311.54 304.84 298.34 298.24 298.34 311.44"/><polyline class="cls-15" points="256.94 270.31 268.56 270.31 270.06 270.31"/><polygon points="268.56 276.91 281.76 270.31 268.56 263.71 268.56 276.91"/><polyline class="cls-15" points="256.94 287.58 268.56 287.58 270.06 287.58"/><polygon points="268.56 294.18 281.76 287.58 268.56 280.98 268.56 294.18"/><polyline class="cls-15" points="256.94 304.84 268.56 304.84 270.06 304.84"/><polygon points="268.56 311.44 281.76 304.84 268.56 298.24 268.56 311.44"/><polyline class="cls-15" points="298.54 134.71 298.54 105.82 298.54 104.32"/><polygon points="305.14 105.82 298.54 92.62 291.94 105.82 305.14 105.82"/><polyline class="cls-15" points="298.54 185.68 298.54 156.8 298.54 155.3"/><polygon points="305.14 156.8 298.54 143.6 291.94 156.8 305.14 156.8"/><text class="cls-53" transform="translate(259.86 24.25)">Side <tspan class="cls-54" x="56.01" y="0">V</tspan><tspan x="72.26" y="0">iew</tspan></text><line class="cls-55" x1="259.8" y1="25.98" x2="371.18" y2="25.98"/><text class="cls-53" transform="translate(735.86 24.25)">F<tspan class="cls-56" x="13.78" y="0">r</tspan><tspan x="22.7" y="0">ont </tspan><tspan class="cls-57" x="67.56" y="0">V</tspan><tspan class="cls-58" x="83.81" y="0">iew</tspan></text><line class="cls-55" x1="735.74" y1="26.26" x2="858.64" y2="26.26"/><text class="cls-59" transform="translate(109.86 91.25)">1</text><text class="cls-59" transform="translate(257.86 92.25)">2</text><text class="cls-59" transform="translate(109.86 241.25)">4</text><text class="cls-59" transform="translate(257.86 242.25)">5</text><rect class="cls-6" x="581.69" y="73.93" width="134" height="134"/><rect class="cls-6" x="581.69" y="222.76" width="134" height="134"/><rect class="cls-6" x="581.69" y="371.58" width="134" height="134"/></g><g class="cls-2"><g class="cls-16"><g class="cls-60"><g class="cls-61"><line class="cls-10" x1="609.39" y1="158.84" x2="687.99" y2="158.84"/></g></g></g></g><g class="cls-2"><g class="cls-16"><g class="cls-62"><g class="cls-63"><line class="cls-10" x1="635.83" y1="123.03" x2="660.5" y2="123.03"/></g></g></g><path d="M652.53,282.52a5.43,5.43,0,1,1-7.68,0A5.43,5.43,0,0,1,652.53,282.52Z"/></g><g class="cls-2"><g class="cls-64"><g class="cls-65"><g class="cls-66"><path class="cls-10" d="M664.1,422.7a21.79,21.79,0,1,1-30.82,0A21.81,21.81,0,0,1,664.1,422.7Z"/></g></g></g></g><g class="cls-2"><g class="cls-64"><g class="cls-67"><g class="cls-68"><path class="cls-10" d="M671.07,416.19a31.66,31.66,0,1,1-44.77,0A31.66,31.66,0,0,1,671.07,416.19Z"/></g></g></g><polyline class="cls-15" points="676.82 409.99 675.75 411.05 621.62 465.18 620.56 466.24"/><polygon points="616.96 460.51 612.29 474.51 626.29 469.85 616.96 460.51"/><polygon points="680.42 415.71 685.09 401.71 671.09 406.38 680.42 415.71"/><polyline class="cls-15" points="620.56 409.99 621.62 411.05 675.75 465.18 676.82 466.24"/><polygon points="671.09 469.85 685.09 474.51 680.42 460.51 671.09 469.85"/><polygon points="626.29 406.38 612.29 401.71 616.96 415.71 626.29 406.38"/><path class="cls-15" d="M640.48,261.22a27,27,0,0,0-11.25,44.54l1.28.78"/><polygon points="625.78 311.38 640.48 312.67 632.69 300.14 625.78 311.38"/><path class="cls-3" d="M654.52,432.75a8.24,8.24,0,1,1-11.66,0A8.24,8.24,0,0,1,654.52,432.75Z"/><path class="cls-15" d="M656.94,312.67a27,27,0,0,0,11.25-44.53l-1.28-.79"/><polygon points="671.64 262.51 656.94 261.22 664.73 273.76 671.64 262.51"/></g><g class="cls-2"><g class="cls-16"><g class="cls-69"><g class="cls-70"><line class="cls-10" x1="601.69" y1="314.9" x2="695.69" y2="257.82"/></g></g></g></g><g class="cls-2"><g class="cls-16"><g class="cls-71"><g class="cls-70"><line class="cls-10" x1="695.69" y1="314.9" x2="601.69" y2="257.82"/></g></g></g><polyline class="cls-15" points="625.4 118.47 626.46 119.53 669.28 162.34 670.34 163.4"/><polygon points="664.61 167.01 678.61 171.68 673.94 157.68 664.61 167.01"/><polygon points="631.13 114.86 617.12 110.19 621.79 124.19 631.13 114.86"/><polyline class="cls-15" points="670.34 118.47 669.28 119.53 626.46 162.34 625.4 163.4"/><polygon points="621.79 157.68 617.12 171.68 631.13 167.01 621.79 157.68"/><polygon points="673.94 124.19 678.61 110.19 664.61 114.86 673.94 124.19"/><path class="cls-3" d="M654,135.24a8.72,8.72,0,1,1-12.33,0A8.72,8.72,0,0,1,654,135.24Z"/></g><g class="cls-2"><g class="cls-16"><g class="cls-72"><g class="cls-73"><line class="cls-10" x1="622.79" y1="141.21" x2="674.59" y2="141.21"/></g></g></g><rect x="642.93" y="137.03" width="9.04" height="9.04"/><rect class="cls-74" x="642.93" y="137.03" width="9.04" height="9.04"/><polygon points="649.19 432.77 650.41 436.53 654.36 436.53 651.16 438.85 652.38 442.6 649.19 440.28 646 442.6 647.22 438.85 644.02 436.53 647.97 436.53 649.19 432.77"/><text class="cls-59" transform="translate(588.86 92.25)">10</text><text class="cls-59" transform="translate(589.86 242.25)">13</text><text class="cls-59" transform="translate(588.86 390.25)">16</text><text class="cls-59" transform="translate(108.86 389.25)">7</text><text class="cls-59" transform="translate(257.86 390.25)">8</text><rect class="cls-6" x="730.19" y="73.9" width="134" height="134"/><rect class="cls-6" x="730.19" y="222.73" width="134" height="134"/><rect class="cls-6" x="730.19" y="371.55" width="134" height="134"/><polyline class="cls-15" points="752.46 185.28 753.52 184.22 839.22 98.52 840.28 97.46"/><polygon points="843.88 103.19 848.55 89.19 834.55 93.85 843.88 103.19"/><polygon points="748.85 179.55 744.18 193.55 758.18 188.89 748.85 179.55"/><polyline class="cls-15" points="840.28 185.28 839.22 184.22 753.52 98.52 752.46 97.46"/><polygon points="758.18 93.85 744.18 89.19 748.85 103.19 758.18 93.85"/><polygon points="834.55 188.89 848.55 193.55 843.88 179.55 834.55 188.89"/><circle class="cls-3" cx="796.37" cy="141.37" r="41.47"/><polyline class="cls-15" points="778.98 158.76 780.04 157.69 812.69 125.04 813.75 123.98"/><polygon points="817.36 129.71 822.03 115.71 808.03 120.38 817.36 129.71"/><polygon points="775.37 153.03 770.71 167.03 784.71 162.36 775.37 153.03"/><polyline class="cls-15" points="778.98 123.98 780.04 125.04 812.69 157.69 813.75 158.76"/><polygon points="808.03 162.36 822.03 167.03 817.36 153.03 808.03 162.36"/><polygon points="784.71 120.38 770.71 115.71 775.37 129.71 784.71 120.38"/><path class="cls-3" d="M802.53,135.21a8.72,8.72,0,1,1-12.33,0A8.72,8.72,0,0,1,802.53,135.21Z"/></g><g class="cls-75"><g class="cls-2"><path class="cls-15" d="M798.21,260.7a24.51,24.51,0,0,0-24.89,15.1,24.22,24.22,0,0,0-.26,17.41l.87,1.22"/><polygon points="767.69 297.05 780.74 303.95 778.43 289.38 767.69 297.05"/></g></g><g class="cls-76"><g class="cls-2"><path class="cls-15" d="M794.51,310.34a24.84,24.84,0,0,0,25.37-33.17l-.87-1.23"/><polygon points="825.27 273.36 812.27 266.38 814.49 280.97 825.27 273.36"/></g></g><g class="cls-2"><path d="M801,282.49a5.43,5.43,0,1,1-7.68,0A5.42,5.42,0,0,1,801,282.49Z"/></g><g class="cls-77"><g class="cls-2"><path class="cls-15" d="M784.28,247.5a39.18,39.18,0,0,0-10.6,69.56l1.36.65"/><polygon points="770.84 323.01 785.59 322.75 776.53 311.1 770.84 323.01"/></g></g><g class="cls-78"><g class="cls-2"><path class="cls-15" d="M810.08,323.54a40.07,40.07,0,0,0,10.54-70.71l-1.35-.65"/><polygon points="823.5 246.89 808.74 247.08 817.74 258.77 823.5 246.89"/></g></g><g class="cls-2"><polyline class="cls-15" points="752.46 482.46 753.52 481.4 839.22 395.7 840.28 394.64"/><polygon points="843.88 400.37 848.55 386.37 834.55 391.03 843.88 400.37"/><polygon points="748.85 476.73 744.18 490.73 758.18 486.06 748.85 476.73"/><polyline class="cls-15" points="840.28 482.46 839.22 481.4 753.52 395.7 752.46 394.64"/><polygon points="758.18 391.03 744.18 386.37 748.85 400.37 758.18 391.03"/><polygon points="834.55 486.06 848.55 490.73 843.88 476.73 834.55 486.06"/><circle class="cls-3" cx="796.37" cy="438.55" r="41.47"/><polyline class="cls-15" points="778.98 455.93 780.04 454.87 812.69 422.22 813.75 421.16"/><polygon points="817.36 426.89 822.03 412.89 808.03 417.56 817.36 426.89"/><polygon points="775.37 450.21 770.71 464.21 784.71 459.54 775.37 450.21"/><polyline class="cls-15" points="778.98 421.16 780.04 422.22 812.69 454.87 813.75 455.93"/><polygon points="808.03 459.54 822.03 464.21 817.36 450.21 808.03 459.54"/><polygon points="784.71 417.56 770.71 412.89 775.37 426.89 784.71 417.56"/><path class="cls-3" d="M802.53,432.39a8.72,8.72,0,1,1-12.33,0A8.72,8.72,0,0,1,802.53,432.39Z"/><path class="cls-3" d="M799.5,434.59a5,5,0,1,1-7.09,0A5,5,0,0,1,799.5,434.59Z"/><rect x="791.43" y="137" width="9.04" height="9.04"/><rect class="cls-74" x="791.43" y="137" width="9.04" height="9.04"/><polygon points="796.37 431.92 797.66 435.89 801.84 435.89 798.46 438.35 799.75 442.33 796.37 439.87 792.98 442.33 794.28 438.35 790.89 435.89 795.07 435.89 796.37 431.92"/><text class="cls-59" transform="translate(787.86 93.25)">11</text><text class="cls-59" transform="translate(737.86 241.25)">14</text><text class="cls-59" transform="translate(788.86 391.25)">17</text><rect class="cls-6" x="397.07" y="73.93" width="134" height="134"/><rect class="cls-6" x="397.07" y="222.76" width="134" height="134"/><rect class="cls-6" x="397.07" y="371.58" width="134" height="134"/><line class="cls-15" x1="463.86" y1="335.74" x2="463.86" y2="243.77"/><line class="cls-15" x1="464.07" y1="484.1" x2="464.07" y2="392.13"/></g><g class="cls-79"><polyline class="cls-29" points="459.77 446.57 448.71 446.57 447.71 446.57"/><polygon points="448.71 441.77 439.11 446.57 448.71 451.37 448.71 441.77"/></g><g class="cls-80"><polyline class="cls-29" points="459.77 429.3 448.71 429.3 447.71 429.3"/><polygon points="448.71 424.5 439.11 429.3 448.71 434.1 448.71 424.5"/></g><g class="cls-81"><polyline class="cls-29" points="459.77 412.04 448.71 412.04 447.71 412.04"/><polygon points="448.71 407.24 439.11 412.04 448.71 416.83 448.71 407.24"/></g><g class="cls-82"><polyline class="cls-29" points="459.77 463.97 448.71 463.97 447.71 463.97"/><polygon points="448.71 459.17 439.11 463.97 448.71 468.77 448.71 459.17"/></g><g class="cls-83"><polyline class="cls-29" points="468.54 429.44 479.6 429.44 480.6 429.44"/><polygon points="479.6 434.24 489.2 429.44 479.6 424.64 479.6 434.24"/></g><g class="cls-84"><polyline class="cls-29" points="468.54 446.7 479.6 446.7 480.6 446.7"/><polygon points="479.6 451.5 489.2 446.7 479.6 441.9 479.6 451.5"/></g><g class="cls-85"><polyline class="cls-29" points="468.54 463.97 479.6 463.97 480.6 463.97"/><polygon points="479.6 468.77 489.2 463.97 479.6 459.17 479.6 468.77"/></g><g class="cls-86"><polyline class="cls-29" points="468.54 412.04 479.6 412.04 480.6 412.04"/><polygon points="479.6 416.83 489.2 412.04 479.6 407.24 479.6 416.83"/></g><g class="cls-2"><polyline class="cls-29" points="501.8 429.44 502.8 429.44 519.62 429.44"/><polygon points="502.8 424.64 493.2 429.44 502.8 434.24 502.8 424.64"/><polyline class="cls-29" points="501.8 446.7 502.8 446.7 519.62 446.7"/><polygon points="502.8 441.9 493.2 446.7 502.8 451.5 502.8 441.9"/><polyline class="cls-29" points="501.8 463.97 502.8 463.97 519.62 463.97"/><polygon points="502.8 459.17 493.2 463.97 502.8 468.77 502.8 459.17"/><polyline class="cls-29" points="501.8 412.04 502.8 412.04 519.62 412.04"/><polygon points="502.8 407.24 493.2 412.04 502.8 416.83 502.8 407.24"/><polyline class="cls-29" points="427.44 446.57 426.44 446.57 409.62 446.57"/><polygon points="426.44 451.37 436.04 446.57 426.44 441.77 426.44 451.37"/><polyline class="cls-29" points="427.44 429.3 426.44 429.3 409.62 429.3"/><polygon points="426.44 434.1 436.04 429.3 426.44 424.5 426.44 434.1"/><polyline class="cls-29" points="427.44 412.04 426.44 412.04 409.62 412.04"/><polygon points="426.44 416.83 436.04 412.04 426.44 407.24 426.44 416.83"/><polyline class="cls-29" points="427.44 463.97 426.44 463.97 409.62 463.97"/><polygon points="426.44 468.77 436.04 463.97 426.44 459.17 426.44 468.77"/><polyline class="cls-6" points="452.14 186.69 452.14 111.03 452.14 109.03"/><polygon points="460.55 111.03 452.14 94.23 443.75 111.03 460.55 111.03"/></g><g class="cls-87"><g class="cls-2"><polyline class="cls-15" points="496.09 278.96 507.71 278.96 509.21 278.96"/><polygon points="507.71 285.56 520.91 278.96 507.71 272.36 507.71 285.56"/></g></g><g class="cls-88"><g class="cls-2"><polyline class="cls-15" points="467.31 278.96 478.93 278.96 480.43 278.96"/><polygon points="478.93 285.56 492.13 278.96 478.93 272.36 478.93 285.56"/></g></g><g class="cls-89"><g class="cls-2"><polyline class="cls-15" points="431.96 278.96 443.58 278.96 445.08 278.96"/><polygon points="443.58 285.56 456.78 278.96 443.58 272.36 443.58 285.56"/></g></g><g class="cls-90"><g class="cls-2"><polyline class="cls-15" points="403.18 278.96 414.8 278.96 416.3 278.96"/><polygon points="414.8 285.56 428 278.96 414.8 272.36 414.8 285.56"/></g></g><g class="cls-91"><g class="cls-2"><polyline class="cls-15" points="428 298.69 416.38 298.69 414.88 298.69"/><polygon points="416.38 305.29 403.18 298.69 416.38 292.09 416.38 305.29"/></g></g><g class="cls-92"><g class="cls-2"><polyline class="cls-15" points="456.78 298.69 445.16 298.69 443.66 298.69"/><polygon points="445.16 305.29 431.96 298.69 445.16 292.09 445.16 305.29"/></g></g><g class="cls-93"><g class="cls-2"><polyline class="cls-15" points="492.13 298.69 480.51 298.69 479.01 298.69"/><polygon points="480.51 305.29 467.31 298.69 480.51 292.09 480.51 305.29"/></g></g><g class="cls-94"><g class="cls-2"><polyline class="cls-15" points="520.91 298.69 509.29 298.69 507.79 298.69"/><polygon points="509.29 305.29 496.09 298.69 509.29 292.09 509.29 305.29"/></g></g><g class="cls-2"><polyline class="cls-6" points="472.7 171.89 472.7 169.89 472.7 94.23"/><polygon points="464.3 169.89 472.7 186.69 481.1 169.89 464.3 169.89"/><text class="cls-59" transform="translate(404.86 91.25)">3</text><text class="cls-59" transform="translate(404.86 241.25)">6</text><text class="cls-59" transform="translate(404.86 390.25)">9</text><rect class="cls-6" x="877.45" y="74.08" width="134" height="134"/><rect class="cls-6" x="877.45" y="222.9" width="134" height="134"/><rect class="cls-6" x="877.45" y="371.73" width="134" height="134"/><polyline class="cls-15" points="906.04 175.38 907.1 174.32 975.23 106.19 976.29 105.13"/><polygon points="979.9 110.86 984.56 96.86 970.56 101.53 979.9 110.86"/><polygon points="902.43 169.66 897.76 183.66 911.76 178.99 902.43 169.66"/><polyline class="cls-15" points="980.4 175.38 979.34 174.32 911.21 106.19 910.15 105.13"/><polygon points="915.88 101.53 901.88 96.86 906.54 110.86 915.88 101.53"/><polygon points="974.67 178.99 988.67 183.66 984.01 169.66 974.67 178.99"/><path class="cls-3" d="M960.75,124.78a23.05,23.05,0,1,1-32.6,0A23,23,0,0,1,960.75,124.78Z"/><path class="cls-3" d="M950.61,135.38a8.72,8.72,0,1,1-12.32,0A8.71,8.71,0,0,1,950.61,135.38Z"/><path class="cls-15" d="M934,263l-1.48.27A24.22,24.22,0,0,0,920.59,276,24.49,24.49,0,0,0,928,304.13"/><polygon points="933.69 269.76 945.47 260.88 931.29 256.78 933.69 269.76"/><path class="cls-15" d="M953.27,308.32l1.47-.28a24.84,24.84,0,0,0,4.79-41.48"/><polygon points="953.5 301.56 941.77 310.51 955.98 314.52 953.5 301.56"/><path d="M948.29,282.67a5.43,5.43,0,1,1-7.68,0A5.42,5.42,0,0,1,948.29,282.67Z"/><path class="cls-15" d="M931.54,247.68a39.18,39.18,0,0,0-10.6,69.56l1.36.64"/><polygon points="918.1 323.19 932.86 322.92 923.79 311.28 918.1 323.19"/><path class="cls-15" d="M957.34,323.72A40.08,40.08,0,0,0,967.89,253l-1.36-.65"/><polygon points="970.76 247.07 956 247.25 965 258.95 970.76 247.07"/></g><g class="cls-95"><g class="cls-2"><polyline class="cls-15" points="905.62 191.26 924.19 172.69 925.25 171.63"/><polygon points="928.86 177.35 933.53 163.35 919.53 168.02 928.86 177.35"/></g></g><g class="cls-96"><g class="cls-2"><polyline class="cls-15" points="993.99 103.67 975.41 122.24 974.36 123.3"/><polygon points="970.75 117.57 966.08 131.57 980.08 126.91 970.75 117.57"/></g></g><g class="cls-97"><g class="cls-2"><polyline class="cls-15" points="981.24 190.44 962.66 171.87 961.6 170.81"/><polygon points="958 176.53 953.33 162.53 967.33 167.2 958 176.53"/></g></g><g class="cls-98"><g class="cls-2"><polyline class="cls-15" points="892.87 102.84 911.44 121.42 912.5 122.48"/><polygon points="916.11 116.75 920.77 130.75 906.77 126.08 916.11 116.75"/></g></g><g class="cls-2"><polyline class="cls-15" points="906.04 468.92 907.1 467.86 975.23 399.73 976.29 398.67"/><polygon points="979.9 404.39 984.56 390.39 970.56 395.06 979.9 404.39"/><polygon points="902.43 463.19 897.76 477.19 911.76 472.52 902.43 463.19"/><polyline class="cls-15" points="980.4 468.92 979.34 467.86 911.21 399.73 910.15 398.67"/><polygon points="915.88 395.06 901.88 390.39 906.54 404.39 915.88 395.06"/><polygon points="974.67 472.52 988.67 477.19 984.01 463.19 974.67 472.52"/><path class="cls-3" d="M960.75,418.31a23.06,23.06,0,1,1-32.6,0A23,23,0,0,1,960.75,418.31Z"/><path class="cls-3" d="M950.61,428.92a8.71,8.71,0,1,1-12.32,0A8.7,8.7,0,0,1,950.61,428.92Z"/><path class="cls-3" d="M948.29,431.24a5.43,5.43,0,1,1-7.68,0A5.43,5.43,0,0,1,948.29,431.24Z"/></g><g class="cls-99"><g class="cls-2"><polyline class="cls-15" points="905.62 484.79 924.19 466.22 925.25 465.16"/><polygon points="928.86 470.89 933.53 456.89 919.53 461.55 928.86 470.89"/></g></g><g class="cls-100"><g class="cls-2"><polyline class="cls-15" points="993.99 397.2 975.41 415.77 974.36 416.83"/><polygon points="970.75 411.11 966.08 425.11 980.08 420.44 970.75 411.11"/></g></g><g class="cls-101"><g class="cls-2"><polyline class="cls-15" points="981.24 483.97 962.66 465.4 961.6 464.34"/><polygon points="958 470.07 953.33 456.06 967.33 460.73 958 470.07"/></g></g><g class="cls-102"><g class="cls-2"><polyline class="cls-15" points="892.87 396.38 911.44 414.95 912.5 416.01"/><polygon points="916.11 410.28 920.77 424.28 906.77 419.62 916.11 410.28"/></g></g><g class="cls-2"><polygon points="944.45 428.63 945.93 433.17 950.71 433.17 946.84 435.98 948.32 440.53 944.45 437.72 940.59 440.53 942.06 435.98 938.2 433.17 942.98 433.17 944.45 428.63"/><rect x="938.59" y="136.62" width="11" height="11"/><rect class="cls-74" x="938.59" y="136.62" width="11" height="11"/><text class="cls-59" transform="translate(936.86 92.25)">12</text><text class="cls-59" transform="translate(883.86 242.25)">15</text><text class="cls-59" transform="translate(934.86 391.25)">18</text><text class="cls-4" transform="translate(613.86 62.25)">constant</text><text class="cls-4" transform="translate(746.86 61.25)">intermittent</text><text class="cls-4" transform="translate(882.25 61.61)">back-and-forth</text></g><g class="cls-103"><rect class="cls-3" x="1.41" y="-16" width="1024" height="768"/><text class="cls-4" transform="translate(12.23 144.85)">translation</text><text class="cls-4" transform="translate(29.32 291.28)"><tspan class="cls-5">r</tspan><tspan x="5.67" y="0">otation</tspan></text><text class="cls-4" transform="translate(13.23 438.38)">expansion</text><text class="cls-4" transform="translate(141.41 62)">constant</text><text class="cls-4" transform="translate(275.41 62)">intermittent</text><text class="cls-4" transform="translate(430.41 62)">osci<tspan class="cls-104" x="31.34" y="0">l</tspan><tspan x="35.68" y="0">lating</tspan></text><rect class="cls-6" x="107.85" y="74.58" width="134" height="134"/><rect class="cls-6" x="107.85" y="223.41" width="134" height="134"/><rect class="cls-6" x="107.85" y="372.23" width="134" height="134"/></g><g class="cls-103"><g class="cls-7"><g class="cls-105"><g class="cls-106"><line class="cls-10" x1="137.2" y1="161.02" x2="215.79" y2="161.02"/></g></g></g></g><g class="cls-103"><g class="cls-7"><g class="cls-107"><g class="cls-108"><line class="cls-10" x1="137.2" y1="142.94" x2="215.79" y2="142.94"/></g></g></g></g><g class="cls-103"><g class="cls-7"><g class="cls-109"><g class="cls-110"><line class="cls-10" x1="137.2" y1="125.21" x2="215.79" y2="125.21"/></g></g></g><polyline class="cls-15" points="157.38 176.01 157.38 115.06 157.38 113.56"/><polygon points="163.98 115.06 157.38 101.86 150.78 115.06 163.98 115.06"/><polyline class="cls-15" points="174.65 176.01 174.65 115.06 174.65 113.56"/><polygon points="181.25 115.06 174.65 101.86 168.04 115.06 181.25 115.06"/><polyline class="cls-15" points="191.91 176.01 191.91 115.06 191.91 113.56"/><polygon points="198.51 115.06 191.91 101.86 185.31 115.06 198.51 115.06"/></g><g class="cls-103"><g class="cls-16"><g class="cls-111"><g class="cls-112"><line class="cls-10" x1="190.91" y1="326.3" x2="190.91" y2="247.71"/></g></g></g></g><g class="cls-103"><g class="cls-16"><g class="cls-113"><g class="cls-114"><line class="cls-10" x1="157.38" y1="326.3" x2="157.38" y2="247.71"/></g></g></g><line class="cls-15" x1="174.64" y1="336.39" x2="174.64" y2="244.42"/></g><g class="cls-115"><g class="cls-103"><polyline class="cls-15" points="137.78 269.74 198.73 269.74 200.23 269.74"/><polygon points="198.73 276.34 211.93 269.74 198.73 263.14 198.73 276.34"/></g></g><g class="cls-116"><g class="cls-103"><polyline class="cls-15" points="137.78 287.01 198.73 287.01 200.23 287.01"/><polygon points="198.73 293.61 211.93 287.01 198.73 280.41 198.73 293.61"/></g></g><g class="cls-117"><g class="cls-103"><polyline class="cls-15" points="137.78 304.27 198.73 304.27 200.23 304.27"/><polygon points="198.73 310.87 211.93 304.27 198.73 297.67 198.73 310.87"/></g></g><g class="cls-103"><g class="cls-16"><g class="cls-118"><g class="cls-119"><line class="cls-10" x1="186.36" y1="474.66" x2="186.36" y2="396.06"/></g></g></g></g><g class="cls-103"><g class="cls-16"><g class="cls-120"><g class="cls-121"><line class="cls-10" x1="163.34" y1="474.66" x2="163.34" y2="396.06"/></g></g></g><line class="cls-15" x1="174.85" y1="484.75" x2="174.85" y2="392.78"/></g><g class="cls-122"><polyline class="cls-29" points="179.9 426.8 203.3 426.8 204.3 426.8"/><polygon points="203.3 431.6 212.9 426.8 203.3 422 203.3 431.6"/></g><g class="cls-123"><polyline class="cls-29" points="179.9 444.06 203.3 444.06 204.3 444.06"/><polygon points="203.3 448.86 212.9 444.06 203.3 439.26 203.3 448.86"/></g><g class="cls-124"><polyline class="cls-29" points="179.9 461.33 203.3 461.33 204.3 461.33"/><polygon points="203.3 466.13 212.9 461.33 203.3 456.53 203.3 466.13"/></g><g class="cls-125"><polyline class="cls-29" points="179.9 409.39 203.3 409.39 204.3 409.39"/><polygon points="203.3 414.19 212.9 409.39 203.3 404.6 203.3 414.19"/></g><g class="cls-126"><polyline class="cls-29" points="169.8 426.8 146.41 426.8 145.41 426.8"/><polygon points="146.41 431.6 136.81 426.8 146.41 422 146.41 431.6"/></g><g class="cls-127"><polyline class="cls-29" points="169.8 444.06 146.41 444.06 145.41 444.06"/><polygon points="146.41 448.86 136.81 444.06 146.41 439.26 146.41 448.86"/></g><g class="cls-128"><polyline class="cls-29" points="169.8 461.33 146.41 461.33 145.41 461.33"/><polygon points="146.41 466.13 136.81 461.33 146.41 456.53 146.41 466.13"/></g><g class="cls-129"><polyline class="cls-29" points="169.8 409.39 146.41 409.39 145.41 409.39"/><polygon points="146.41 414.19 136.81 409.39 146.41 404.6 146.41 414.19"/></g><g class="cls-103"><rect class="cls-6" x="256.35" y="74.73" width="134" height="134"/><rect class="cls-6" x="256.35" y="223.55" width="134" height="134"/><rect class="cls-6" x="256.35" y="372.37" width="134" height="134"/><polyline class="cls-15" points="323.35 135.46 323.35 106.57 323.35 105.07"/><polygon points="329.95 106.57 323.35 93.37 316.75 106.57 329.95 106.57"/><polyline class="cls-15" points="340.62 135.46 340.62 106.57 340.62 105.07"/><polygon points="347.22 106.57 340.62 93.37 334.02 106.57 347.22 106.57"/><line class="cls-15" x1="323.14" y1="336.54" x2="323.14" y2="244.57"/><polyline class="cls-15" points="357.4 271.06 369.02 271.06 370.52 271.06"/><polygon points="369.02 277.66 382.22 271.06 369.02 264.46 369.02 277.66"/><polyline class="cls-15" points="357.4 288.33 369.02 288.33 370.52 288.33"/><polygon points="369.02 294.93 382.22 288.33 369.02 281.73 369.02 294.93"/><polyline class="cls-15" points="357.4 305.6 369.02 305.6 370.52 305.6"/><polygon points="369.02 312.2 382.22 305.6 369.02 299 369.02 312.2"/><line class="cls-15" x1="323.35" y1="484.89" x2="323.35" y2="392.92"/></g><g class="cls-130"><polyline class="cls-29" points="319.05 447.36 307.99 447.36 306.99 447.36"/><polygon points="307.99 442.56 298.39 447.36 307.99 452.16 307.99 442.56"/></g><g class="cls-131"><polyline class="cls-29" points="319.05 430.1 307.99 430.1 306.99 430.1"/><polygon points="307.99 425.3 298.39 430.1 307.99 434.9 307.99 425.3"/></g><g class="cls-132"><polyline class="cls-29" points="319.05 412.83 307.99 412.83 306.99 412.83"/><polygon points="307.99 408.03 298.39 412.83 307.99 417.63 307.99 408.03"/></g><g class="cls-133"><polyline class="cls-29" points="319.05 464.77 307.99 464.77 306.99 464.77"/><polygon points="307.99 459.96 298.39 464.77 307.99 469.57 307.99 459.96"/></g><g class="cls-134"><polyline class="cls-29" points="327.82 430.23 338.88 430.23 339.88 430.23"/><polygon points="338.88 435.03 348.48 430.23 338.88 425.43 338.88 435.03"/></g><g class="cls-135"><polyline class="cls-29" points="327.82 447.5 338.88 447.5 339.88 447.5"/><polygon points="338.88 452.3 348.48 447.5 338.88 442.7 338.88 452.3"/></g><g class="cls-136"><polyline class="cls-29" points="327.82 464.77 338.88 464.77 339.88 464.77"/><polygon points="338.88 469.57 348.48 464.77 338.88 459.96 338.88 469.57"/></g><g class="cls-137"><polyline class="cls-29" points="327.82 412.83 338.88 412.83 339.88 412.83"/><polygon points="338.88 417.63 348.48 412.83 338.88 408.03 338.88 417.63"/></g><g class="cls-138"><polyline class="cls-29" points="352.49 430.23 369.31 430.23 370.31 430.23"/><polygon points="369.31 435.03 378.9 430.23 369.31 425.43 369.31 435.03"/></g><g class="cls-139"><polyline class="cls-29" points="352.49 447.5 369.31 447.5 370.31 447.5"/><polygon points="369.31 452.3 378.9 447.5 369.31 442.7 369.31 452.3"/></g><g class="cls-140"><polyline class="cls-29" points="352.49 464.77 369.31 464.77 370.31 464.77"/><polygon points="369.31 469.57 378.9 464.77 369.31 459.96 369.31 469.57"/></g><g class="cls-141"><polyline class="cls-29" points="352.49 412.83 369.31 412.83 370.31 412.83"/><polygon points="369.31 417.63 378.9 412.83 369.31 408.03 369.31 417.63"/></g><g class="cls-142"><polyline class="cls-29" points="294.33 447.36 277.51 447.36 276.51 447.36"/><polygon points="277.51 442.56 267.91 447.36 277.51 452.16 277.51 442.56"/></g><g class="cls-143"><polyline class="cls-29" points="294.33 430.1 277.51 430.1 276.51 430.1"/><polygon points="277.51 425.3 267.91 430.1 277.51 434.9 277.51 425.3"/></g><g class="cls-144"><polyline class="cls-29" points="294.33 412.83 277.51 412.83 276.51 412.83"/><polygon points="277.51 408.03 267.91 412.83 277.51 417.63 277.51 408.03"/></g><g class="cls-145"><polyline class="cls-29" points="294.33 464.77 277.51 464.77 276.51 464.77"/><polygon points="277.51 459.96 267.91 464.77 277.51 469.57 277.51 459.96"/></g><g class="cls-103"><polyline class="cls-15" points="323.35 186.44 323.35 157.55 323.35 156.05"/><polygon points="329.95 157.55 323.35 144.35 316.75 157.55 329.95 157.55"/><polyline class="cls-15" points="340.62 186.44 340.62 157.55 340.62 156.05"/><polygon points="347.22 157.55 340.62 144.35 334.02 157.55 347.22 157.55"/><polyline class="cls-15" points="328.62 271.06 340.24 271.06 341.74 271.06"/><polygon points="340.24 277.66 353.44 271.06 340.24 264.46 340.24 277.66"/><polyline class="cls-15" points="328.62 288.33 340.24 288.33 341.74 288.33"/><polygon points="340.24 294.93 353.44 288.33 340.24 281.73 340.24 294.93"/><polyline class="cls-15" points="328.62 305.6 340.24 305.6 341.74 305.6"/><polygon points="340.24 312.2 353.44 305.6 340.24 299 340.24 312.2"/><polyline class="cls-15" points="293.26 271.06 304.88 271.06 306.38 271.06"/><polygon points="304.88 277.66 318.08 271.06 304.88 264.46 304.88 277.66"/><polyline class="cls-15" points="293.26 288.33 304.88 288.33 306.38 288.33"/><polygon points="304.88 294.93 318.08 288.33 304.88 281.73 304.88 294.93"/><polyline class="cls-15" points="293.26 305.6 304.88 305.6 306.38 305.6"/><polygon points="304.88 312.2 318.08 305.6 304.88 299 304.88 312.2"/><polyline class="cls-15" points="263.49 271.06 275.11 271.06 276.61 271.06"/><polygon points="275.11 277.66 288.31 271.06 275.11 264.46 275.11 277.66"/><polyline class="cls-15" points="263.49 288.33 275.11 288.33 276.61 288.33"/><polygon points="275.11 294.93 288.31 288.33 275.11 281.73 275.11 294.93"/><polyline class="cls-15" points="263.49 305.6 275.11 305.6 276.61 305.6"/><polygon points="275.11 312.2 288.31 305.6 275.11 299 275.11 312.2"/><polyline class="cls-15" points="305.08 135.46 305.08 106.57 305.08 105.07"/><polygon points="311.69 106.57 305.08 93.37 298.49 106.57 311.69 106.57"/><polyline class="cls-15" points="305.08 186.44 305.08 157.55 305.08 156.05"/><polygon points="311.69 157.55 305.08 144.35 298.49 157.55 311.69 157.55"/><text class="cls-53" transform="translate(266.41 25)">Side <tspan class="cls-54" x="56.01" y="0">V</tspan><tspan x="72.26" y="0">iew</tspan></text><line class="cls-55" x1="266.34" y1="26.73" x2="377.73" y2="26.73"/><text class="cls-53" transform="translate(742.41 25)">F<tspan class="cls-56" x="13.78" y="0">r</tspan><tspan x="22.7" y="0">ont </tspan><tspan class="cls-57" x="67.56" y="0">V</tspan><tspan class="cls-58" x="83.81" y="0">iew</tspan></text><line class="cls-55" x1="742.28" y1="27.02" x2="865.19" y2="27.02"/><text class="cls-59" transform="translate(116.41 92)">1</text><text class="cls-59" transform="translate(264.41 93)">2</text><text class="cls-59" transform="translate(116.41 242)">7</text><text class="cls-59" transform="translate(264.41 243)">8</text><rect class="cls-6" x="588.24" y="74.69" width="134" height="134"/><rect class="cls-6" x="588.24" y="223.51" width="134" height="134"/><rect class="cls-6" x="588.24" y="372.33" width="134" height="134"/></g><g class="cls-103"><g class="cls-16"><g class="cls-146"><g class="cls-147"><line class="cls-10" x1="615.94" y1="159.59" x2="694.53" y2="159.59"/></g></g></g></g><g class="cls-103"><g class="cls-16"><g class="cls-148"><g class="cls-149"><line class="cls-10" x1="642.37" y1="123.78" x2="667.04" y2="123.78"/></g></g></g><path d="M659.07,283.27a5.43,5.43,0,1,1-7.67,0A5.43,5.43,0,0,1,659.07,283.27Z"/></g><g class="cls-103"><g class="cls-64"><g class="cls-150"><g class="cls-151"><path class="cls-10" d="M670.64,423.46a21.79,21.79,0,1,1-30.81,0A21.78,21.78,0,0,1,670.64,423.46Z"/></g></g></g></g><g class="cls-103"><g class="cls-64"><g class="cls-152"><g class="cls-153"><path class="cls-10" d="M677.62,417a31.66,31.66,0,1,1-44.77,0A31.66,31.66,0,0,1,677.62,417Z"/></g></g></g><polyline class="cls-15" points="683.36 410.74 682.3 411.8 628.17 465.93 627.11 466.99"/><polygon points="623.5 461.26 618.84 475.26 632.84 470.6 623.5 461.26"/><polygon points="686.97 416.47 691.63 402.47 677.63 407.13 686.97 416.47"/><polyline class="cls-15" points="627.11 410.74 628.17 411.8 682.3 465.93 683.36 466.99"/><polygon points="677.63 470.6 691.63 475.26 686.97 461.26 677.63 470.6"/><polygon points="632.84 407.13 618.84 402.47 623.5 416.47 632.84 407.13"/><path class="cls-15" d="M647,262a27,27,0,0,0-11.25,44.53l1.28.79"/><polygon points="632.33 312.14 647.03 313.42 639.24 300.89 632.33 312.14"/><path class="cls-3" d="M661.07,433.5a8.25,8.25,0,1,1-11.67,0A8.24,8.24,0,0,1,661.07,433.5Z"/><path class="cls-15" d="M663.49,313.42a27,27,0,0,0,11.25-44.53l-1.28-.79"/><polygon points="678.19 263.26 663.49 261.98 671.28 274.51 678.19 263.26"/></g><g class="cls-103"><g class="cls-16"><g class="cls-154"><g class="cls-155"><line class="cls-10" x1="608.24" y1="315.65" x2="702.24" y2="258.57"/></g></g></g></g><g class="cls-103"><g class="cls-16"><g class="cls-156"><g class="cls-155"><line class="cls-10" x1="702.24" y1="315.65" x2="608.24" y2="258.57"/></g></g></g><polyline class="cls-15" points="631.95 119.22 633.01 120.28 675.82 163.1 676.88 164.16"/><polygon points="671.16 167.76 685.16 172.43 680.49 158.43 671.16 167.76"/><polygon points="637.67 115.61 623.67 110.94 628.34 124.95 637.67 115.61"/><polyline class="cls-15" points="676.88 119.22 675.82 120.28 633.01 163.1 631.95 164.16"/><polygon points="628.34 158.43 623.67 172.43 637.67 167.76 628.34 158.43"/><polygon points="680.49 124.95 685.16 110.94 671.16 115.61 680.49 124.95"/><path class="cls-3" d="M660.58,136a8.72,8.72,0,1,1-12.33,0A8.73,8.73,0,0,1,660.58,136Z"/></g><g class="cls-103"><g class="cls-16"><g class="cls-157"><g class="cls-158"><line class="cls-10" x1="629.34" y1="141.96" x2="681.14" y2="141.96"/></g></g></g><rect x="649.48" y="137.78" width="9.04" height="9.04"/><rect class="cls-74" x="649.48" y="137.78" width="9.04" height="9.04"/><polygon points="655.74 433.52 656.96 437.28 660.9 437.28 657.71 439.6 658.93 443.35 655.74 441.03 652.54 443.35 653.76 439.6 650.57 437.28 654.52 437.28 655.74 433.52"/><text class="cls-59" transform="translate(595.41 93)">4</text><text class="cls-59" transform="translate(596.41 243)">10</text><text class="cls-59" transform="translate(595.41 391)">16</text><text class="cls-59" transform="translate(114.41 390)">13</text><text class="cls-59" transform="translate(264.41 391)">14</text><rect class="cls-6" x="736.74" y="74.66" width="134" height="134"/><rect class="cls-6" x="736.74" y="223.48" width="134" height="134"/><rect class="cls-6" x="736.74" y="372.3" width="134" height="134"/><polyline class="cls-15" points="759 186.03 760.07 184.97 845.76 99.27 846.82 98.21"/><polygon points="850.43 103.94 855.1 89.94 841.1 94.61 850.43 103.94"/><polygon points="755.4 180.31 750.73 194.31 764.73 189.64 755.4 180.31"/><polyline class="cls-15" points="846.82 186.03 845.76 184.97 760.07 99.27 759 98.21"/><polygon points="764.73 94.61 750.73 89.94 755.4 103.94 764.73 94.61"/><polygon points="841.1 189.64 855.1 194.31 850.43 180.31 841.1 189.64"/><circle class="cls-3" cx="802.91" cy="142.12" r="41.47"/><polyline class="cls-15" points="785.53 159.51 786.59 158.45 819.24 125.8 820.3 124.74"/><polygon points="823.91 130.46 828.57 116.46 814.57 121.13 823.91 130.46"/><polygon points="781.92 153.78 777.25 167.78 791.26 163.12 781.92 153.78"/><polyline class="cls-15" points="785.53 124.74 786.59 125.8 819.24 158.45 820.3 159.51"/><polygon points="814.57 163.12 828.57 167.78 823.91 153.78 814.57 163.12"/><polygon points="791.26 121.13 777.25 116.46 781.92 130.46 791.26 121.13"/><path class="cls-3" d="M809.08,136a8.72,8.72,0,1,1-12.33,0A8.73,8.73,0,0,1,809.08,136Z"/></g><g class="cls-159"><g class="cls-103"><path class="cls-15" d="M804.76,261.45a24.5,24.5,0,0,0-24.89,15.11,24.14,24.14,0,0,0-.26,17.4l.87,1.23"/><polygon points="774.24 297.8 787.28 304.71 784.98 290.13 774.24 297.8"/></g></g><g class="cls-160"><g class="cls-103"><path class="cls-15" d="M801.06,311.09a24.84,24.84,0,0,0,25.37-33.17l-.87-1.23"/><polygon points="831.82 274.12 818.82 267.13 821.03 281.73 831.82 274.12"/></g></g><g class="cls-103"><path d="M807.57,283.24a5.43,5.43,0,1,1-7.67,0A5.43,5.43,0,0,1,807.57,283.24Z"/></g><g class="cls-161"><g class="cls-103"><path class="cls-15" d="M790.83,248.26a39.16,39.16,0,0,0-10.6,69.55l1.35.65"/><polygon points="777.38 323.77 792.14 323.5 783.07 311.86 777.38 323.77"/></g></g><g class="cls-162"><g class="cls-103"><path class="cls-15" d="M816.62,324.29a40.06,40.06,0,0,0,10.55-70.7l-1.35-.66"/><polygon points="830.04 247.65 815.29 247.83 824.29 259.52 830.04 247.65"/></g></g><g class="cls-103"><polyline class="cls-15" points="759 483.21 760.07 482.15 845.76 396.45 846.82 395.39"/><polygon points="850.43 401.12 855.1 387.12 841.1 391.78 850.43 401.12"/><polygon points="755.4 477.48 750.73 491.48 764.73 486.82 755.4 477.48"/><polyline class="cls-15" points="846.82 483.21 845.76 482.15 760.07 396.45 759 395.39"/><polygon points="764.73 391.78 750.73 387.12 755.4 401.12 764.73 391.78"/><polygon points="841.1 486.82 855.1 491.48 850.43 477.48 841.1 486.82"/><path class="cls-3" d="M832.24,410a41.47,41.47,0,1,1-58.65,0A41.47,41.47,0,0,1,832.24,410Z"/><polyline class="cls-15" points="785.53 456.69 786.59 455.63 819.24 422.98 820.3 421.91"/><polygon points="823.91 427.64 828.57 413.64 814.57 418.31 823.91 427.64"/><polygon points="781.92 450.96 777.25 464.96 791.26 460.29 781.92 450.96"/><polyline class="cls-15" points="785.53 421.91 786.59 422.98 819.24 455.63 820.3 456.69"/><polygon points="814.57 460.29 828.57 464.96 823.91 450.96 814.57 460.29"/><polygon points="791.26 418.31 777.25 413.64 781.92 427.64 791.26 418.31"/><path class="cls-3" d="M809.08,433.14a8.72,8.72,0,1,1-12.33,0A8.72,8.72,0,0,1,809.08,433.14Z"/><path class="cls-3" d="M806.05,435.34a5,5,0,1,1-7.09,0A5,5,0,0,1,806.05,435.34Z"/><rect x="797.98" y="137.75" width="9.04" height="9.04"/><rect class="cls-74" x="797.98" y="137.75" width="9.04" height="9.04"/><polygon points="802.91 432.67 804.21 436.65 808.39 436.65 805.01 439.11 806.3 443.08 802.91 440.63 799.53 443.08 800.82 439.11 797.44 436.65 801.62 436.65 802.91 432.67"/><text class="cls-59" transform="translate(798.41 94)">5</text><text class="cls-59" transform="translate(744.41 242)">11</text><text class="cls-59" transform="translate(795.41 392)">17</text><rect class="cls-6" x="403.61" y="74.69" width="134" height="134"/><rect class="cls-6" x="403.61" y="223.51" width="134" height="134"/><rect class="cls-6" x="403.61" y="372.33" width="134" height="134"/><line class="cls-15" x1="470.41" y1="336.49" x2="470.41" y2="244.52"/><line class="cls-15" x1="470.61" y1="484.85" x2="470.61" y2="392.88"/></g><g class="cls-163"><polyline class="cls-29" points="466.32 447.32 455.25 447.32 454.25 447.32"/><polygon points="455.25 442.52 445.65 447.32 455.25 452.12 455.25 442.52"/></g><g class="cls-164"><polyline class="cls-29" points="466.32 430.06 455.25 430.06 454.25 430.06"/><polygon points="455.25 425.25 445.65 430.06 455.25 434.85 455.25 425.25"/></g><g class="cls-165"><polyline class="cls-29" points="466.32 412.79 455.25 412.79 454.25 412.79"/><polygon points="455.25 407.99 445.65 412.79 455.25 417.59 455.25 407.99"/></g><g class="cls-166"><polyline class="cls-29" points="466.32 464.72 455.25 464.72 454.25 464.72"/><polygon points="455.25 459.92 445.65 464.72 455.25 469.52 455.25 459.92"/></g><g class="cls-167"><polyline class="cls-29" points="475.08 430.19 486.15 430.19 487.15 430.19"/><polygon points="486.15 434.99 495.75 430.19 486.15 425.39 486.15 434.99"/></g><g class="cls-168"><polyline class="cls-29" points="475.08 447.46 486.15 447.46 487.15 447.46"/><polygon points="486.15 452.26 495.75 447.46 486.15 442.66 486.15 452.26"/></g><g class="cls-169"><polyline class="cls-29" points="475.08 464.72 486.15 464.72 487.15 464.72"/><polygon points="486.15 469.52 495.75 464.72 486.15 459.92 486.15 469.52"/></g><g class="cls-170"><polyline class="cls-29" points="475.08 412.79 486.15 412.79 487.15 412.79"/><polygon points="486.15 417.59 495.75 412.79 486.15 407.99 486.15 417.59"/></g><g class="cls-103"><polyline class="cls-29" points="508.35 430.19 509.35 430.19 526.17 430.19"/><polygon points="509.35 425.39 499.75 430.19 509.35 434.99 509.35 425.39"/><polyline class="cls-29" points="508.35 447.46 509.35 447.46 526.17 447.46"/><polygon points="509.35 442.66 499.75 447.46 509.35 452.26 509.35 442.66"/><polyline class="cls-29" points="508.35 464.72 509.35 464.72 526.17 464.72"/><polygon points="509.35 459.92 499.75 464.72 509.35 469.52 509.35 459.92"/><polyline class="cls-29" points="508.35 412.79 509.35 412.79 526.17 412.79"/><polygon points="509.35 407.99 499.75 412.79 509.35 417.59 509.35 407.99"/><polyline class="cls-29" points="433.99 447.32 432.99 447.32 416.17 447.32"/><polygon points="432.99 452.12 442.59 447.32 432.99 442.52 432.99 452.12"/><polyline class="cls-29" points="433.99 430.06 432.99 430.06 416.17 430.06"/><polygon points="432.99 434.85 442.59 430.06 432.99 425.25 432.99 434.85"/><polyline class="cls-29" points="433.99 412.79 432.99 412.79 416.17 412.79"/><polygon points="432.99 417.59 442.59 412.79 432.99 407.99 432.99 417.59"/><polyline class="cls-29" points="433.99 464.72 432.99 464.72 416.17 464.72"/><polygon points="432.99 469.52 442.59 464.72 432.99 459.92 432.99 469.52"/><polyline class="cls-6" points="458.69 187.44 458.69 111.79 458.69 109.79"/><polygon points="467.09 111.79 458.69 94.99 450.29 111.79 467.09 111.79"/></g><g class="cls-171"><g class="cls-103"><polyline class="cls-15" points="502.64 279.71 514.26 279.71 515.76 279.71"/><polygon points="514.26 286.31 527.46 279.71 514.26 273.11 514.26 286.31"/></g></g><g class="cls-172"><g class="cls-103"><polyline class="cls-15" points="473.86 279.71 485.48 279.71 486.98 279.71"/><polygon points="485.48 286.31 498.68 279.71 485.48 273.11 485.48 286.31"/></g></g><g class="cls-173"><g class="cls-103"><polyline class="cls-15" points="438.51 279.71 450.12 279.71 451.62 279.71"/><polygon points="450.12 286.31 463.32 279.71 450.12 273.11 450.12 286.31"/></g></g><g class="cls-174"><g class="cls-103"><polyline class="cls-15" points="409.73 279.71 421.35 279.71 422.85 279.71"/><polygon points="421.35 286.31 434.55 279.71 421.35 273.11 421.35 286.31"/></g></g><g class="cls-175"><g class="cls-103"><polyline class="cls-15" points="434.55 299.44 422.93 299.44 421.43 299.44"/><polygon points="422.93 306.04 409.73 299.44 422.93 292.84 422.93 306.04"/></g></g><g class="cls-176"><g class="cls-103"><polyline class="cls-15" points="463.32 299.44 451.71 299.44 450.21 299.44"/><polygon points="451.71 306.04 438.51 299.44 451.71 292.84 451.71 306.04"/></g></g><g class="cls-177"><g class="cls-103"><polyline class="cls-15" points="498.68 299.44 487.06 299.44 485.56 299.44"/><polygon points="487.06 306.04 473.86 299.44 487.06 292.84 487.06 306.04"/></g></g><g class="cls-178"><g class="cls-103"><polyline class="cls-15" points="527.46 299.44 515.84 299.44 514.34 299.44"/><polygon points="515.84 306.04 502.64 299.44 515.84 292.84 515.84 306.04"/></g></g><g class="cls-103"><polyline class="cls-6" points="479.25 172.64 479.25 170.64 479.25 94.99"/><polygon points="470.85 170.64 479.25 187.44 487.65 170.64 470.85 170.64"/><text class="cls-59" transform="translate(411.41 92)">3</text><text class="cls-59" transform="translate(412.41 242)">9</text><text class="cls-59" transform="translate(411.41 391)">15</text><rect class="cls-6" x="884" y="74.83" width="134" height="134"/><rect class="cls-6" x="884" y="223.66" width="134" height="134"/><rect class="cls-6" x="884" y="372.48" width="134" height="134"/><polyline class="cls-15" points="912.58 176.14 913.64 175.08 981.78 106.95 982.84 105.89"/><polygon points="986.44 111.61 991.11 97.61 977.11 102.28 986.44 111.61"/><polygon points="908.98 170.41 904.31 184.41 918.31 179.74 908.98 170.41"/><polyline class="cls-15" points="986.95 176.14 985.89 175.08 917.76 106.95 916.7 105.89"/><polygon points="922.42 102.28 908.42 97.61 913.09 111.61 922.42 102.28"/><polygon points="981.22 179.74 995.22 184.41 990.55 170.41 981.22 179.74"/><path class="cls-3" d="M967.3,125.53a23.06,23.06,0,1,1-32.6,0A23.07,23.07,0,0,1,967.3,125.53Z"/><path class="cls-3" d="M957.16,136.14a8.71,8.71,0,1,1-12.32,0A8.7,8.7,0,0,1,957.16,136.14Z"/><path class="cls-15" d="M940.51,263.75,939,264a24.18,24.18,0,0,0-11.91,12.7,24.48,24.48,0,0,0,7.42,28.15"/><polygon points="940.24 270.52 952.02 261.63 937.84 257.54 940.24 270.52"/><path class="cls-15" d="M959.81,309.08l1.48-.29a24.84,24.84,0,0,0,4.79-41.48"/><polygon points="960.05 302.31 948.32 311.27 962.53 315.28 960.05 302.31"/><path d="M954.84,283.42a5.43,5.43,0,1,1-7.68,0A5.42,5.42,0,0,1,954.84,283.42Z"/><path class="cls-15" d="M938.09,248.43A39.18,39.18,0,0,0,927.49,318l1.36.65"/><polygon points="924.65 323.94 939.4 323.68 930.34 312.03 924.65 323.94"/><path class="cls-15" d="M963.89,324.47a40.07,40.07,0,0,0,10.54-70.71l-1.35-.65"/><polygon points="977.31 247.82 962.55 248.01 971.55 259.7 977.31 247.82"/></g><g class="cls-179"><g class="cls-103"><polyline class="cls-15" points="912.17 192.01 930.74 173.44 931.8 172.38"/><polygon points="935.41 178.11 940.07 164.11 926.07 168.77 935.41 178.11"/></g></g><g class="cls-180"><g class="cls-103"><polyline class="cls-15" points="1000.53 104.42 981.96 122.99 980.9 124.05"/><polygon points="977.29 118.32 972.63 132.32 986.63 127.66 977.29 118.32"/></g></g><g class="cls-181"><g class="cls-103"><polyline class="cls-15" points="987.78 191.19 969.21 172.62 968.15 171.56"/><polygon points="964.54 177.28 959.88 163.28 973.88 167.95 964.54 177.28"/></g></g><g class="cls-182"><g class="cls-103"><polyline class="cls-15" points="899.42 103.6 917.99 122.17 919.05 123.23"/><polygon points="922.65 117.5 927.32 131.5 913.32 126.84 922.65 117.5"/></g></g><g class="cls-103"><polyline class="cls-15" points="912.58 469.67 913.64 468.61 981.78 400.48 982.84 399.42"/><polygon points="986.44 405.15 991.11 391.14 977.11 395.81 986.44 405.15"/><polygon points="908.98 463.94 904.31 477.94 918.31 473.28 908.98 463.94"/><polyline class="cls-15" points="986.95 469.67 985.89 468.61 917.76 400.48 916.7 399.42"/><polygon points="922.42 395.81 908.42 391.14 913.09 405.15 922.42 395.81"/><polygon points="981.22 473.28 995.22 477.94 990.55 463.94 981.22 473.28"/><path class="cls-3" d="M967.3,419.06a23.06,23.06,0,1,1-32.6,0A23.07,23.07,0,0,1,967.3,419.06Z"/><circle class="cls-3" cx="951" cy="435.83" r="8.72"/><path class="cls-3" d="M954.84,432a5.43,5.43,0,1,1-7.68,0A5.42,5.42,0,0,1,954.84,432Z"/></g><g class="cls-183"><g class="cls-103"><polyline class="cls-15" points="912.17 485.55 930.74 466.97 931.8 465.91"/><polygon points="935.41 471.64 940.07 457.64 926.07 462.31 935.41 471.64"/></g></g><g class="cls-184"><g class="cls-103"><polyline class="cls-15" points="1000.53 397.95 981.96 416.52 980.9 417.58"/><polygon points="977.29 411.86 972.63 425.86 986.63 421.19 977.29 411.86"/></g></g><g class="cls-185"><g class="cls-103"><polyline class="cls-15" points="987.78 484.72 969.21 466.15 968.15 465.09"/><polygon points="964.54 470.82 959.88 456.82 973.88 461.48 964.54 470.82"/></g></g><g class="cls-186"><g class="cls-103"><polyline class="cls-15" points="899.42 397.13 917.99 415.7 919.05 416.76"/><polygon points="922.65 411.04 927.32 425.04 913.32 420.37 922.65 411.04"/></g></g><g class="cls-103"><polygon points="951 429.38 952.48 433.93 957.25 433.93 953.39 436.74 954.87 441.28 951 438.47 947.13 441.28 948.61 436.74 944.74 433.93 949.52 433.93 951 429.38"/><rect x="945.14" y="137.37" width="11" height="11"/><rect class="cls-74" x="945.14" y="137.37" width="11" height="11"/><text class="cls-59" transform="translate(946.41 93)">6</text><text class="cls-59" transform="translate(890.41 243)">12</text><text class="cls-59" transform="translate(941.41 392)">18</text><text class="cls-4" transform="translate(620.41 63)">constant</text><text class="cls-4" transform="translate(753.41 62)">intermittent</text><text class="cls-4" transform="translate(910.41 62)">osci<tspan class="cls-104" x="31.34" y="0">l</tspan><tspan x="35.68" y="0">lating</tspan></text></g></svg>