<?xml version="1.0" encoding="UTF-8" standalone="no"?>
<!-- Created with Inkscape (http://www.inkscape.org/) -->

<svg
   xmlns:dc="http://purl.org/dc/elements/1.1/"
   xmlns:cc="http://creativecommons.org/ns#"
   xmlns:rdf="http://www.w3.org/1999/02/22-rdf-syntax-ns#"
   xmlns:svg="http://www.w3.org/2000/svg"
   xmlns="http://www.w3.org/2000/svg"
   xmlns:sodipodi="http://sodipodi.sourceforge.net/DTD/sodipodi-0.dtd"
   xmlns:inkscape="http://www.inkscape.org/namespaces/inkscape"
   width="1191.9999"
   height="525.19446"
   viewBox="0 0 1192 525.19444"
   id="svg4173"
   version="1.1"
   inkscape:version="0.91 r"
   sodipodi:docname="QUVA.svg"
   inkscape:export-filename="/mnt/shared/morris/IAMAI/QUvA/design/logo/QUVA.png"
   inkscape:export-xdpi="90"
   inkscape:export-ydpi="90">
  <defs
     id="defs4175" />
  <sodipodi:namedview
     id="base"
     pagecolor="#ffffff"
     bordercolor="#666666"
     borderopacity="1.0"
     inkscape:pageopacity="0.0"
     inkscape:pageshadow="2"
     inkscape:zoom="0.98994949"
     inkscape:cx="672.38945"
     inkscape:cy="87.010735"
     inkscape:document-units="px"
     inkscape:current-layer="layer1"
     showgrid="false"
     fit-margin-top="2"
     fit-margin-left="2"
     fit-margin-right="2"
     fit-margin-bottom="2"
     inkscape:window-width="1855"
     inkscape:window-height="1056"
     inkscape:window-x="65"
     inkscape:window-y="24"
     inkscape:window-maximized="1"
     units="px" />
  <metadata
     id="metadata4178">
    <rdf:RDF>
      <cc:Work
         rdf:about="">
        <dc:format>image/svg+xml</dc:format>
        <dc:type
           rdf:resource="http://purl.org/dc/dcmitype/StillImage" />
        <dc:title></dc:title>
      </cc:Work>
    </rdf:RDF>
  </metadata>
  <g
     inkscape:label="Layer 1"
     inkscape:groupmode="layer"
     id="layer1"
     transform="translate(-43.177294,356.01488)">
    <g
       id="g3344"
       transform="matrix(4.1549474,0,0,4.1549474,-142.53196,-527.44279)">
      <g
         id="text4721"
         style="font-style:normal;font-variant:normal;font-weight:bold;font-stretch:normal;font-size:105.43280029px;line-height:125%;font-family:Arial;-inkscape-font-specification:'Arial Bold';text-align:center;letter-spacing:0px;word-spacing:0px;text-anchor:middle;fill:#000000;fill-opacity:1;stroke:none;stroke-width:1px;stroke-linecap:butt;stroke-linejoin:miter;stroke-opacity:1">
        <path
           inkscape:connector-curvature="0"
           id="path4732"
           d="m 150.99116,53.795692 15.23833,0 0,40.875802 q 0,9.729886 0.56629,12.612816 0.97814,4.63327 4.63328,7.46472 3.70662,2.77997 10.09025,2.77997 6.48658,0 9.78136,-2.62553 3.29477,-2.677 3.96403,-6.53807 0.66925,-3.86106 0.66925,-12.818731 l 0,-41.750977 15.23833,0 0,39.640262 q 0,13.590946 -1.23554,19.202356 -1.23554,5.61142 -4.5818,9.47248 -3.29477,3.86107 -8.8547,6.17771 -5.55994,2.26515 -14.51761,2.26515 -10.81098,0 -16.42239,-2.47108 -5.55993,-2.52256 -8.80323,-6.48659 -3.24329,-4.0155 -4.27291,-8.39138 -1.49294,-6.48658 -1.49294,-19.150876 l 0,-40.258032 z" />
        <path
           inkscape:connector-curvature="0"
           id="path4734"
           d="m 232.07535,129.26663 -26.97597,-75.470938 16.52536,0 19.0994,55.856728 18.48163,-55.856728 16.16499,0 -27.02746,75.470938 -16.26795,0 z" />
        <path
           inkscape:connector-curvature="0"
           id="path4736"
           d="m 330.34795,129.26663 -16.57684,0 -6.58955,-17.14312 -30.16778,0 -6.22918,17.14312 -16.16499,0 29.39557,-75.470938 16.11351,0 30.21926,75.470938 z m -28.05707,-29.858896 -10.39913,-28.005588 -10.19321,28.005588 20.59234,0 z" />
      </g>
      <g
         transform="matrix(2.1390762,-1.5997198,1.5997198,2.1390762,-46.091932,-160.67808)"
         id="g4754">
        <circle
           style="color:#000000;clip-rule:nonzero;display:inline;overflow:visible;visibility:visible;opacity:1;isolation:auto;mix-blend-mode:normal;color-interpolation:sRGB;color-interpolation-filters:linearRGB;solid-color:#000000;solid-opacity:1;fill:none;fill-opacity:1;fill-rule:nonzero;stroke:#000000;stroke-width:5.41911602;stroke-linecap:round;stroke-linejoin:round;stroke-miterlimit:4;stroke-dasharray:none;stroke-dashoffset:0;stroke-opacity:1;color-rendering:auto;image-rendering:auto;shape-rendering:auto;text-rendering:auto;enable-background:accumulate"
           id="path4749"
           cx="-14.437858"
           cy="105.99438"
           r="15.053869" />
        <path
           style="color:#000000;clip-rule:nonzero;display:inline;overflow:visible;visibility:visible;opacity:1;isolation:auto;mix-blend-mode:normal;color-interpolation:sRGB;color-interpolation-filters:linearRGB;solid-color:#000000;solid-opacity:1;fill:#000000;fill-opacity:1;fill-rule:nonzero;stroke:none;stroke-width:1;stroke-linecap:round;stroke-linejoin:round;stroke-miterlimit:4;stroke-dasharray:none;stroke-dashoffset:0;stroke-opacity:1;color-rendering:auto;image-rendering:auto;shape-rendering:auto;text-rendering:auto;enable-background:accumulate"
           d="m -15.8671,121.27767 1.452865,0 1.373947,0 c 1.423682,6.17024 2.226262,13.45535 2.226262,18.52081 l -7.200419,0 c -0.317788,-5.20714 1.030984,-12.38331 2.147345,-18.52081 z"
           id="rect4751"
           inkscape:connector-curvature="0"
           sodipodi:nodetypes="cccccc" />
      </g>
      <g
         style="font-style:normal;font-variant:normal;font-weight:bold;font-stretch:normal;font-size:20.01895142px;line-height:125%;font-family:Arial;-inkscape-font-specification:'Arial Bold';text-align:center;letter-spacing:0px;word-spacing:0px;text-anchor:middle;fill:#000000;fill-opacity:1;stroke:none;stroke-width:1px;stroke-linecap:butt;stroke-linejoin:miter;stroke-opacity:1"
         id="text4758">
        <path
           d="m 177.83139,145.71048 5.28821,0 q 1.7888,0 2.72719,0.2737 1.26096,0.37144 2.16025,1.3196 0.89929,0.94817 1.36848,2.32643 0.4692,1.36848 0.4692,3.3821 0,1.76926 -0.43987,3.04977 -0.53762,1.56398 -1.53466,2.53169 -0.75266,0.73311 -2.03317,1.14366 -0.95794,0.30302 -2.56102,0.30302 l -5.44461,0 0,-14.32997 z m 2.89337,2.42417 0,9.49141 2.16024,0 q 1.21209,0 1.74971,-0.13685 0.70379,-0.17595 1.16321,-0.59627 0.46919,-0.42032 0.76244,-1.37826 0.29324,-0.96771 0.29324,-2.62944 0,-1.66173 -0.29324,-2.55124 -0.29325,-0.88952 -0.82109,-1.38804 -0.52784,-0.49851 -1.33916,-0.67446 -0.60604,-0.13685 -2.3753,-0.13685 l -1.30005,0 z"
           style=""
           id="path3396" />
        <path
           d="m 198.29999,156.73654 2.73696,0.45942 q -0.52784,1.50533 -1.6715,2.2971 -1.13389,0.78199 -2.84449,0.78199 -2.70764,0 -4.0077,-1.76925 -1.02636,-1.41736 -1.02636,-3.57761 0,-2.58057 1.34893,-4.03703 1.34893,-1.46623 3.41143,-1.46623 2.31665,0 3.65581,1.53466 1.33916,1.52488 1.28051,4.68217 l -6.88152,0 q 0.0293,1.22186 0.66469,1.9061 0.63537,0.67446 1.58353,0.67446 0.64515,0 1.08502,-0.35189 0.43987,-0.3519 0.66469,-1.13389 z m 0.1564,-2.77606 q -0.0293,-1.19254 -0.61582,-1.80836 -0.58649,-0.62559 -1.42713,-0.62559 -0.89929,0 -1.48579,0.65492 -0.58649,0.65492 -0.57671,1.77903 l 4.10545,0 z"
           style=""
           id="path3398" />
        <path
           d="m 209.44335,156.73654 2.73697,0.45942 q -0.52785,1.50533 -1.67151,2.2971 -1.13388,0.78199 -2.84449,0.78199 -2.70764,0 -4.0077,-1.76925 -1.02636,-1.41736 -1.02636,-3.57761 0,-2.58057 1.34893,-4.03703 1.34894,-1.46623 3.41144,-1.46623 2.31664,0 3.6558,1.53466 1.33916,1.52488 1.28051,4.68217 l -6.88151,0 q 0.0293,1.22186 0.66469,1.9061 0.63536,0.67446 1.58353,0.67446 0.64514,0 1.08501,-0.35189 0.43987,-0.3519 0.66469,-1.13389 z m 0.1564,-2.77606 q -0.0293,-1.19254 -0.61582,-1.80836 -0.58649,-0.62559 -1.42713,-0.62559 -0.89929,0 -1.48578,0.65492 -0.58649,0.65492 -0.57672,1.77903 l 4.10545,0 z"
           style=""
           id="path3400" />
        <path
           d="m 214.49696,149.65953 2.56102,0 0,1.52488 q 0.49852,-0.78199 1.34893,-1.27073 0.85042,-0.48875 1.88655,-0.48875 1.80836,0 3.06932,1.41736 1.26096,1.41736 1.26096,3.94905 0,2.60012 -1.27074,4.0468 -1.27073,1.43691 -3.07909,1.43691 -0.86018,0 -1.56398,-0.34212 -0.69401,-0.34212 -1.46623,-1.17299 l 0,5.22956 -2.74674,0 0,-14.32997 z m 2.71742,5.01451 q 0,1.74971 0.69401,2.59035 0.69402,0.83086 1.69106,0.83086 0.95794,0 1.5933,-0.76244 0.63537,-0.77222 0.63537,-2.52192 0,-1.6324 -0.65492,-2.42417 -0.65491,-0.79176 -1.62263,-0.79176 -1.00681,0 -1.6715,0.78199 -0.66469,0.77221 -0.66469,2.29709 z"
           style=""
           id="path3402" />
        <path
           d="m 236.04079,160.04045 -5.12203,-14.32997 3.13773,0 3.62648,10.60574 3.50919,-10.60574 3.06931,0 -5.13181,14.32997 -3.08887,0 z"
           style=""
           id="path3404" />
        <path
           d="m 245.40513,148.25195 0,-2.54147 2.74674,0 0,2.54147 -2.74674,0 z m 0,11.7885 0,-10.38092 2.74674,0 0,10.38092 -2.74674,0 z"
           style=""
           id="path3406" />
        <path
           d="m 250.00909,157.07866 2.75652,-0.42032 q 0.17595,0.80154 0.71357,1.22186 0.53761,0.41055 1.50533,0.41055 1.06546,0 1.60308,-0.391 0.36167,-0.27369 0.36167,-0.73311 0,-0.3128 -0.1955,-0.51807 -0.20527,-0.1955 -0.91884,-0.36167 -3.32346,-0.73312 -4.21297,-1.33916 -1.23164,-0.84064 -1.23164,-2.3362 0,-1.34893 1.06547,-2.26777 1.06546,-0.91884 3.3039,-0.91884 2.13093,0 3.16707,0.69402 1.03613,0.69402 1.42713,2.05272 l -2.59035,0.47897 q -0.16617,-0.60604 -0.63536,-0.92861 -0.45942,-0.32257 -1.31961,-0.32257 -1.08501,0 -1.55421,0.30302 -0.31279,0.21505 -0.31279,0.55717 0,0.29324 0.27369,0.49852 0.37145,0.27369 2.56102,0.77221 2.19935,0.49852 3.06931,1.22186 0.86019,0.73312 0.86019,2.04295 0,1.42713 -1.19253,2.4535 -1.19254,1.02636 -3.52873,1.02636 -2.12115,0 -3.36256,-0.86019 -1.23164,-0.86019 -1.61286,-2.3362 z"
           style=""
           id="path3408" />
        <path
           d="m 262.12017,148.25195 0,-2.54147 2.74674,0 0,2.54147 -2.74674,0 z m 0,11.7885 0,-10.38092 2.74674,0 0,10.38092 -2.74674,0 z"
           style=""
           id="path3410" />
        <path
           d="m 267.03693,154.70337 q 0,-1.36849 0.67447,-2.64899 0.67447,-1.28051 1.9061,-1.95498 1.24141,-0.67447 2.76629,-0.67447 2.35575,0 3.86108,1.53466 1.50533,1.52488 1.50533,3.86108 0,2.35574 -1.52488,3.90995 -1.51511,1.54443 -3.82198,1.54443 -1.42713,0 -2.72719,-0.64514 -1.29028,-0.64515 -1.96475,-1.88656 -0.67447,-1.25118 -0.67447,-3.03998 z m 2.81517,0.14662 q 0,1.54443 0.73312,2.36552 0.73311,0.82109 1.80835,0.82109 1.07523,0 1.79858,-0.82109 0.73311,-0.82109 0.73311,-2.38507 0,-1.52488 -0.73311,-2.34597 -0.72335,-0.82109 -1.79858,-0.82109 -1.07524,0 -1.80835,0.82109 -0.73312,0.82109 -0.73312,2.36552 z"
           style=""
           id="path3412" />
        <path
           d="m 289.35299,160.04045 -2.74674,0 0,-5.29798 q 0,-1.68128 -0.17595,-2.17003 -0.17595,-0.49852 -0.57672,-0.77221 -0.391,-0.2737 -0.94816,-0.2737 -0.71357,0 -1.28051,0.391 -0.56695,0.39099 -0.78199,1.03613 -0.20528,0.64515 -0.20528,2.38507 l 0,4.70172 -2.74674,0 0,-10.38092 2.55125,0 0,1.52488 q 1.35871,-1.75948 3.4212,-1.75948 0.90907,0 1.66173,0.33235 0.75267,0.32257 1.13389,0.83086 0.391,0.5083 0.53762,1.15344 0.1564,0.64514 0.1564,1.84745 l 0,6.45142 z"
           style=""
           id="path3414" />
        <path
           d="m 297.79848,160.04045 0,-14.21267 2.89336,0 0,11.79828 7.19431,0 0,2.41439 -10.08767,0 z"
           style=""
           id="path3416" />
        <path
           d="m 311.99161,152.82659 -2.4926,-0.44964 q 0.42032,-1.50534 1.44668,-2.22868 1.02637,-0.72334 3.04977,-0.72334 1.83767,0 2.73696,0.43987 0.89929,0.4301 1.26096,1.10456 0.37145,0.6647 0.37145,2.4535 l -0.0293,3.20616 q 0,1.36848 0.12707,2.0234 0.13685,0.64514 0.49852,1.38803 l -2.71741,0 q -0.10753,-0.2737 -0.26392,-0.81131 -0.0684,-0.24438 -0.0978,-0.32257 -0.70379,0.68424 -1.50533,1.02636 -0.80154,0.34212 -1.71061,0.34212 -1.60308,0 -2.53169,-0.86997 -0.91884,-0.86996 -0.91884,-2.19934 0,-0.87974 0.42032,-1.56398 0.42032,-0.69402 1.17298,-1.05569 0.76245,-0.37145 2.18958,-0.64514 1.92565,-0.36167 2.66854,-0.67447 l 0,-0.2737 q 0,-0.79176 -0.391,-1.12411 -0.39099,-0.34212 -1.476,-0.34212 -0.73312,0 -1.14366,0.29325 -0.41055,0.28347 -0.66469,1.00681 z m 3.67535,2.22867 q -0.52784,0.17595 -1.6715,0.42032 -1.14367,0.24437 -1.49556,0.47897 -0.53762,0.38122 -0.53762,0.96771 0,0.57672 0.4301,0.99704 0.43009,0.42032 1.09478,0.42032 0.74289,0 1.41736,-0.48874 0.49852,-0.37145 0.65492,-0.90907 0.10752,-0.35189 0.10752,-1.33915 l 0,-0.5474 z"
           style=""
           id="path3418" />
        <path
           d="m 320.96494,160.04045 0,-14.32997 2.74674,0 0,5.16113 q 1.27073,-1.44668 3.01066,-1.44668 1.89633,0 3.13774,1.37826 1.24141,1.36848 1.24141,3.93928 0,2.65876 -1.27074,4.09567 -1.26096,1.43691 -3.06931,1.43691 -0.88951,0 -1.75948,-0.43987 -0.86019,-0.44965 -1.48578,-1.31961 l 0,1.52488 -2.55124,0 z m 2.72719,-5.41528 q 0,1.61285 0.50829,2.38507 0.71357,1.09479 1.89633,1.09479 0.90906,0 1.54443,-0.77222 0.64514,-0.78199 0.64514,-2.45349 0,-1.77903 -0.64514,-2.56102 -0.64514,-0.79177 -1.65195,-0.79177 -0.98727,0 -1.64218,0.77222 -0.65492,0.76244 -0.65492,2.32642 z"
           style=""
           id="path3420" />
      </g>
      <path
         sodipodi:nodetypes="ccc"
         inkscape:connector-curvature="0"
         id="path4764"
         d="m 119.45903,93.68895 c -2.28409,13.4117 -16.69143,22.07951 -22.489486,23.95365 6.093426,0 22.489486,-5.79469 22.489486,-23.95365 z"
         style="fill:#000000;fill-opacity:1;fill-rule:evenodd;stroke:none;stroke-width:1px;stroke-linecap:butt;stroke-linejoin:miter;stroke-opacity:1" />
      <path
         style="fill:#000000;fill-opacity:1;fill-rule:evenodd;stroke:none;stroke-width:1px;stroke-linecap:butt;stroke-linejoin:miter;stroke-opacity:1"
         d="m 66.43383,84.428318 c 2.284087,-13.4117 16.691427,-22.079512 22.489487,-23.953652 -6.09343,0 -22.489487,5.79469 -22.489487,23.953652 z"
         id="path4783"
         inkscape:connector-curvature="0"
         sodipodi:nodetypes="ccc" />
    </g>
  </g>
</svg>
